<svg width="2918" height="2209" viewBox="0 0 2918 2209" fill="none" xmlns="http://www.w3.org/2000/svg">
<path d="M1068.16 150.289C1077.25 148.54 1086.85 154.977 1086.33 162.602C1086.5 170.158 1076.9 176.454 1067.91 174.565C1059.08 173.236 1053.42 164.701 1057.02 157.915C1058.82 154.067 1063.11 151.059 1068.16 150.289V150.289Z" fill="black" stroke="black" stroke-width="0.09375"/>
<path d="M1101.67 175.545C1107.16 173.236 1114.44 176.034 1115.98 180.861C1117.61 185.129 1114.18 190.166 1108.87 191.215C1103.38 192.615 1097.04 189.536 1096.01 184.919C1094.9 181.211 1097.39 177.084 1101.67 175.545V175.545Z" fill="#010101" stroke="#010101" stroke-width="0.09375"/>
<path d="M1139.29 180.441C1149.57 178.203 1161.06 184.219 1162.94 192.754C1165.34 200.939 1158.32 209.824 1148.29 211.573C1141.35 212.972 1133.55 210.943 1128.92 206.466C1123.87 201.849 1122.67 194.713 1126.09 189.186C1128.49 184.779 1133.55 181.491 1139.29 180.441Z" fill="black" stroke="black" stroke-width="0.09375"/>
<path d="M1198.34 205.557C1205.96 204.297 1214.19 207.166 1218.39 212.482C1223.27 218.289 1222.5 226.614 1216.76 231.791C1211.79 236.618 1203.14 238.507 1195.85 236.478C1188.05 234.449 1182.4 228.083 1182.4 221.437C1182.23 213.882 1189.25 206.816 1198.34 205.557V205.557Z" fill="black" stroke="black" stroke-width="0.09375"/>
<path d="M1147.86 221.717C1156.09 220.038 1165.09 225.145 1166.11 232.001C1167.57 238.507 1161.49 245.153 1153.52 246.062C1145.63 247.322 1137.32 242.494 1136.12 236.058C1134.49 229.692 1140.06 222.976 1147.86 221.717Z" fill="black" stroke="black" stroke-width="0.09375"/>
<path d="M1010.75 235.079C1018.54 233.26 1026.77 238.647 1026.94 245.153C1027.63 250.82 1021.8 256.416 1014.69 256.556C1007.83 256.906 1001.58 252.079 1001.15 246.482C1000.55 241.445 1004.66 236.268 1010.75 235.079V235.079Z" fill="black" stroke="black" stroke-width="0.09375"/>
<path d="M1260.12 235.639C1273.75 232.98 1288.75 240.606 1291.83 251.729C1295.69 262.643 1287.12 275.095 1273.75 278.243C1260.89 281.811 1245.64 275.935 1240.76 265.651C1235.87 256.486 1239.98 245.013 1250.01 239.277C1253.01 237.528 1256.44 236.268 1260.12 235.639V235.639Z" fill="black" stroke="black" stroke-width="0.09375"/>
<path d="M1208.62 244.524C1217.62 242.565 1227.39 248.721 1227.22 256.346C1227.73 263.902 1218.39 270.338 1209.31 268.799C1201.16 267.75 1195.25 260.754 1197.05 254.178C1198.16 249.561 1202.96 245.573 1208.62 244.524V244.524Z" fill="black" stroke="black" stroke-width="0.09375"/>
<path d="M1328.68 263.062C1336.48 262.153 1344.71 263.552 1351.39 266.91C1361.85 272.087 1368.44 282.091 1367.67 292.095C1367.33 304.268 1356.02 315.391 1341.54 318.05C1332.02 320.009 1321.65 318.33 1313.6 313.782C1306.14 309.515 1300.92 302.799 1299.46 295.453C1297.74 287.758 1300.4 279.503 1306.4 273.416C1311.8 267.82 1319.94 263.972 1328.68 263.062Z" fill="black" stroke="black" stroke-width="0.09375"/>
<path d="M1269.55 287.478C1278.98 285.589 1289.17 291.396 1290.37 299.231C1291.92 306.437 1285.66 313.852 1276.83 315.251C1268.01 317 1258.24 312.033 1256.27 304.758C1253.78 297.272 1260.21 288.877 1269.55 287.478Z" fill="black" stroke="black" stroke-width="0.09375"/>
<path d="M1222.42 290.276C1228.33 288.807 1235.1 292.585 1235.44 297.622C1236.21 302.729 1230.22 307.486 1223.96 306.717C1218.56 306.297 1214.28 302.03 1214.88 297.622C1215.22 294.194 1218.39 291.116 1222.42 290.276Z" fill="#010101" stroke="#010101" stroke-width="0.09375"/>
<path d="M1404.95 297.412C1416.86 296.013 1429.37 298.601 1439.14 304.408C1448.74 310.074 1455.6 318.749 1457.74 328.264C1460.23 338.408 1457.31 349.321 1449.94 357.786C1443.77 364.922 1434.6 370.239 1424.4 372.617C1412.58 375.416 1399.55 374.226 1388.75 369.399C1377.79 364.502 1369.3 355.897 1365.96 346.103C1362.1 335.19 1364.59 322.947 1372.64 313.642C1380.1 304.828 1392.1 298.811 1404.95 297.412Z" fill="black" stroke="black" stroke-width="0.09375"/>
<path d="M1140.06 300.49C1147.09 298.741 1154.89 303.009 1156.17 308.815C1157.8 314.342 1153.26 320.568 1146.32 321.618C1139.55 322.947 1132.35 318.819 1130.98 313.293C1129.26 308.046 1133.38 301.889 1140.06 300.49Z" fill="#010101" stroke="#010101" stroke-width="0.09375"/>
<path d="M1290.89 323.646C1296.89 321.548 1304.43 325.255 1304.86 330.572C1305.71 335.539 1300.14 340.296 1294.06 339.877C1288.32 339.737 1283.6 335.189 1284.38 330.502C1284.8 327.424 1287.37 324.696 1290.89 323.646Z" fill="#010101" stroke="#010101" stroke-width="0.09375"/>
<path d="M1330.39 328.754C1342.74 325.885 1356.7 332.322 1360.22 342.396C1364.42 352.47 1356.88 364.362 1344.45 367.511C1332.97 370.939 1319 366.041 1314.03 356.947C1309.06 348.692 1312.23 337.988 1321.14 332.461C1323.88 330.643 1327.05 329.383 1330.39 328.754V328.754Z" fill="black" stroke="black" stroke-width="0.09375"/>
<path d="M1491.5 348.342C1502.64 345.193 1515.76 351.35 1518.24 360.724C1520.98 369.119 1514.47 378.564 1504.36 381.082C1497.67 382.901 1489.88 381.712 1484.39 378.004C1478.14 373.876 1475.31 366.741 1477.45 360.374C1479.16 354.778 1484.73 350.021 1491.5 348.342V348.342Z" fill="black" stroke="black" stroke-width="0.09375"/>
<path d="M1165 360.934C1172.63 358.835 1181.28 363.872 1181.71 370.379C1182.65 375.905 1177.43 381.642 1170.57 382.132C1164.31 382.901 1158.06 379.193 1156.52 374.226C1154.37 368.979 1158.4 362.613 1165 360.934Z" fill="black" stroke="black" stroke-width="0.09375"/>
<path d="M1219.85 377.654C1226.7 375.765 1234.5 379.683 1236.13 385.35C1238.01 390.667 1234.16 396.963 1227.56 398.502C1221.05 400.321 1213.5 396.893 1211.53 391.646C1208.88 386.119 1212.82 379.263 1219.85 377.654Z" fill="black" stroke="black" stroke-width="0.09375"/>
<path d="M1387.81 378.354C1393.64 376.045 1400.67 380.522 1400.07 385.629C1399.98 390.666 1392.44 394.304 1387.13 391.576C1380.87 388.917 1381.21 380.522 1387.81 378.354V378.354Z" fill="#010101" stroke="#010101" stroke-width="0.09375"/>
<path d="M1281.46 379.543C1289.26 377.654 1298.09 381.502 1301 387.658C1303.4 392.485 1302.37 398.432 1298 402.28C1293.72 406.407 1286.09 407.806 1280.01 405.708C1273.41 403.539 1269.12 397.802 1269.55 392.066C1269.72 386.399 1274.69 381.012 1281.46 379.543V379.543Z" fill="black" stroke="black" stroke-width="0.09375"/>
<path d="M1338.11 380.523C1352.68 377.375 1369.13 383.741 1375.47 394.864C1380.61 403.329 1379.76 413.963 1373.16 421.729C1364.67 432.502 1346.08 436.77 1331.94 431.103C1319.08 426.486 1311.03 414.593 1313.08 403.259C1314.63 392.416 1325.08 382.902 1338.11 380.523Z" fill="black" stroke="black" stroke-width="0.09375"/>
<path d="M1437.43 381.082C1449.17 379.403 1461.68 381.572 1471.62 387.029C1482.25 392.765 1489.7 402.209 1491.85 412.423C1494.16 422.777 1490.82 433.761 1483.11 442.156C1476.34 449.641 1466.05 454.888 1454.83 456.707C1442.4 458.876 1428.95 456.567 1418.49 450.621C1409.06 445.374 1402.29 437.259 1399.55 428.304C1396.72 419.279 1398.18 409.345 1403.58 401.09C1410.26 390.596 1423.2 382.971 1437.43 381.082V381.082Z" fill="black" stroke="black" stroke-width="0.09375"/>
<path d="M1248.98 391.576C1253.78 389.617 1260.04 392.345 1261.07 396.543C1262.52 400.53 1258.92 405.218 1253.7 405.637C1249.24 406.127 1244.78 403.399 1244.01 399.761C1243.16 396.543 1245.21 392.975 1248.98 391.576Z" fill="#010101" stroke="#010101" stroke-width="0.09375"/>
<path d="M1519.78 392.486C1529.98 389.897 1541.81 394.864 1545.24 403.05C1547.64 408.226 1546.69 414.243 1542.75 418.79C1538.72 423.547 1531.61 426.416 1524.5 426.136C1517.38 425.926 1510.53 422.568 1507.1 417.461C1504.1 413.193 1503.59 407.807 1505.64 403.189C1507.96 398.082 1513.36 393.955 1519.78 392.486V392.486Z" fill="black" stroke="black" stroke-width="0.09375"/>
<path d="M1185.57 405.078C1192.42 402.979 1200.48 406.757 1202.19 412.423C1204.51 418.3 1199.45 425.366 1191.82 426.135C1185.14 427.115 1178.45 422.987 1177.17 417.6C1175.8 412.493 1179.4 406.687 1185.57 405.078V405.078Z" fill="black" stroke="black" stroke-width="0.09375"/>
<path d="M1285.06 415.572C1291.66 414.103 1297.92 420.189 1295.34 425.296C1293.63 430.193 1285.06 431.802 1280.95 427.954C1276.06 424.247 1278.38 416.621 1285.06 415.572V415.572Z" fill="#010101" stroke="#010101" stroke-width="0.09375"/>
<path d="M1251.55 416.901C1258.5 415.222 1266.21 419.349 1267.58 425.016C1269.55 430.962 1264.07 437.818 1256.35 438.238C1249.58 438.938 1243.07 434.39 1242.21 428.933C1241.1 423.757 1245.21 418.16 1251.55 416.901Z" fill="#010101" stroke="#010101" stroke-width="0.09375"/>
<path d="M1524.93 433.131C1543.87 430.263 1564.35 435.3 1578.14 446.283C1590.14 455.518 1597.08 468.88 1597.08 482.312C1597.25 495.674 1590.4 508.896 1578.74 518.201C1569.4 525.826 1556.89 530.793 1543.78 532.192C1526.3 534.151 1507.96 529.534 1494.85 519.95C1484.22 512.254 1477.02 501.481 1474.96 490.007C1472.57 477.765 1476.16 464.892 1484.65 454.609C1493.73 443.345 1508.64 435.37 1524.93 433.131V433.131Z" fill="black" stroke="black" stroke-width="0.09375"/>
<path d="M1293.55 435.02C1301.6 432.851 1310.68 436.979 1313.51 443.345C1316.43 449.222 1313.77 456.707 1307 460.065C1301.52 463.004 1293.89 462.654 1288.75 459.436C1282.75 455.798 1280.35 448.872 1283 443.205C1284.72 439.288 1288.75 436.14 1293.55 435.02V435.02Z" fill="black" stroke="black" stroke-width="0.09375"/>
<path d="M1330.31 442.575C1337.08 441.596 1342.56 448.172 1339.48 453.069C1337.25 457.686 1328.94 458.666 1325.17 454.818C1320.45 450.831 1323.45 443.135 1330.31 442.575Z" fill="#010101" stroke="#010101" stroke-width="0.09375"/>
<path d="M1257.55 446.284C1263.55 444.465 1270.15 449.152 1269.12 454.259C1268.78 459.506 1260.47 462.584 1255.41 459.296C1249.67 456.148 1250.95 448.033 1257.55 446.284Z" fill="#010101" stroke="#010101" stroke-width="0.09375"/>
<path d="M1367.24 446.354C1381.98 443.555 1398.18 450.341 1404.18 461.605C1408.29 468.95 1408.04 477.765 1403.49 484.901C1399.38 491.407 1391.92 496.514 1383.27 498.543C1374.19 500.711 1364.07 499.522 1356.1 495.254C1344.71 489.448 1338.71 477.485 1341.79 466.781C1344.45 456.777 1354.82 448.312 1367.24 446.354V446.354Z" fill="black" stroke="black" stroke-width="0.09375"/>
<path d="M1313.34 475.806C1318.74 474.057 1325.08 477.695 1325.17 482.382C1325.6 486.16 1321.91 489.867 1317.2 490.077C1311.97 490.567 1307.26 486.579 1307.69 482.382C1307.77 479.513 1310 476.715 1313.34 475.806Z" fill="#010101" stroke="#010101" stroke-width="0.09375"/>
<path d="M1158.14 479.933C1166.2 478.394 1174.77 483.921 1174.77 490.637C1175.28 496.723 1168.69 502.39 1161.23 502.39C1153.52 502.74 1146.49 496.933 1147 490.637C1147.09 485.6 1151.97 480.843 1158.14 479.933Z" fill="black" stroke="black" stroke-width="0.09375"/>
<path d="M1444.37 489.658C1449.94 488.398 1456.28 489.448 1460.82 492.456C1465.11 495.184 1467.77 499.592 1467.85 504.069C1468.11 509.946 1463.57 515.752 1456.97 518.131C1452.94 519.67 1448.23 519.81 1443.94 518.9C1436.4 517.151 1430.75 511.205 1430.66 504.769C1430.23 497.843 1436.32 491.267 1444.37 489.658Z" fill="black" stroke="black" stroke-width="0.09375"/>
<path d="M1404.09 504.419C1410.69 502.74 1418.06 506.588 1419.52 511.974C1421.49 517.501 1416.69 523.867 1409.66 524.707C1402.64 525.826 1395.61 520.929 1395.27 515.122C1394.67 510.505 1398.52 505.678 1404.09 504.419Z" fill="black" stroke="black" stroke-width="0.09375"/>
<path d="M1360.3 505.539C1365.19 504.139 1371.27 506.378 1372.73 510.506C1374.44 514.563 1370.84 519.111 1365.96 520.16C1360.99 521.419 1354.99 519.041 1353.7 514.843C1352.33 510.995 1355.59 506.658 1360.3 505.539V505.539Z" fill="#010101" stroke="#010101" stroke-width="0.09375"/>
<path d="M1233.56 516.172C1241.61 513.863 1250.87 517.851 1253.78 524.287C1256.35 529.324 1254.9 535.62 1250.01 539.398C1245.3 543.316 1237.5 544.295 1231.59 541.707C1225.42 539.258 1221.65 533.452 1222.33 527.855C1222.76 522.608 1227.3 517.711 1233.56 516.172V516.172Z" fill="black" stroke="black" stroke-width="0.09375"/>
<path d="M1591.77 525.546C1606.77 523.587 1622.71 528.065 1633.08 537.159C1644.73 546.954 1649.01 561.995 1643.96 574.937C1639.85 586.06 1629.22 595.435 1615.85 599.562C1602.4 603.9 1586.46 602.71 1574.2 596.484C1562.55 590.748 1554.32 580.743 1552.26 569.76C1549.78 557.867 1554.83 545.135 1565.29 536.6C1572.4 530.653 1581.83 526.736 1591.77 525.546V525.546Z" fill="black" stroke="black" stroke-width="0.09375"/>
<path d="M1455.51 527.575C1470.34 525.477 1486.19 532.892 1491.33 544.435C1495.36 552.83 1493.82 562.834 1487.22 570.04C1479.68 578.645 1465.62 582.912 1453.03 580.394C1444.03 578.715 1436.06 573.818 1431.69 567.242C1426.63 559.826 1426.2 550.452 1430.66 542.826C1435.2 534.781 1444.8 528.835 1455.51 527.575V527.575Z" fill="black" stroke="black" stroke-width="0.09375"/>
<path d="M1307.26 532.332C1315.31 530.513 1324.05 534.851 1326.62 541.217C1329.2 547.024 1326.54 554.089 1320.11 557.447C1314.71 560.386 1307.17 560.246 1301.94 557.098C1296.03 553.74 1293.37 547.163 1295.52 541.567C1297.06 537.019 1301.69 533.312 1307.26 532.332Z" fill="black" stroke="black" stroke-width="0.09375"/>
<path d="M1399.81 537.999C1406.41 536.25 1413.95 540.028 1415.41 545.484C1417.29 550.871 1412.83 557.238 1405.98 558.147C1399.55 559.336 1392.87 555.559 1391.5 550.382C1389.78 545.345 1393.55 539.468 1399.81 537.999V537.999Z" fill="#010101" stroke="#010101" stroke-width="0.09375"/>
<path d="M1346.68 540.797C1353.28 538.979 1360.9 544.295 1358.76 549.892C1357.05 556.048 1345.91 557.937 1341.28 552.83C1336.99 548.703 1340.42 541.847 1346.68 540.797Z" fill="#010101" stroke="#010101" stroke-width="0.09375"/>
<path d="M1518.84 540.657C1525.01 539.468 1531.87 541.077 1536.24 544.855C1540.69 548.492 1542.49 554.019 1541.04 558.986C1539.67 563.673 1535.47 567.661 1530.07 569.48C1524.33 571.439 1517.38 570.809 1512.33 567.871C1506.07 564.443 1503.07 557.657 1504.96 551.71C1506.59 546.254 1512.16 541.776 1518.84 540.657V540.657Z" fill="black" stroke="black" stroke-width="0.09375"/>
<path d="M1249.07 554.019C1253.52 551.851 1259.78 555.069 1259.35 559.266C1259.35 563.394 1253.18 566.192 1248.9 563.954C1244.18 561.995 1244.27 555.838 1249.07 554.019Z" fill="#010101" stroke="#010101" stroke-width="0.09375"/>
<path d="M1370.59 557.308C1378.98 555.978 1388.15 558.637 1393.64 564.024C1401.27 571.159 1401.09 582.842 1393.21 589.768C1385.84 596.904 1372.04 598.583 1362.45 593.546C1354.13 589.488 1349.42 581.233 1351.13 573.468C1352.68 565.493 1360.82 558.707 1370.59 557.308V557.308Z" fill="black" stroke="black" stroke-width="0.09375"/>
<path d="M1170.06 565.073C1176.14 563.954 1182.65 568.081 1182.57 573.258C1183 578.155 1177.43 582.493 1171.51 582.073C1165.43 581.933 1160.46 576.756 1161.83 571.859C1162.52 568.501 1165.94 565.633 1170.06 565.073V565.073Z" fill="black" stroke="black" stroke-width="0.09375"/>
<path d="M1291.75 572.768C1302.11 571.019 1313.17 577.386 1314.71 585.921C1316.77 594.246 1309.31 603.06 1299.12 604.529C1290.8 605.999 1281.8 602.431 1277.86 596.344C1275.03 592.077 1274.69 586.83 1277.01 582.353C1279.49 577.386 1285.23 573.608 1291.75 572.768V572.768Z" fill="black" stroke="black" stroke-width="0.09375"/>
<path d="M1514.64 579.974C1529.73 577.875 1545.66 585.711 1550.55 597.534C1556.03 609.287 1549.69 623.558 1536.32 629.784C1527.67 634.052 1516.53 634.751 1507.19 631.603C1500.85 629.505 1495.36 625.867 1491.68 621.11C1485.68 613.624 1484.82 603.69 1489.36 595.575C1493.82 587.32 1503.67 581.233 1514.64 579.974V579.974Z" fill="black" stroke="black" stroke-width="0.09375"/>
<path d="M1329.54 590.328C1335.28 588.929 1341.96 592.706 1341.71 597.743C1341.79 603.41 1333.48 607.118 1327.48 604.739C1322.94 603.13 1320.63 598.373 1322.94 594.735C1324.14 592.497 1326.71 590.887 1329.54 590.328V590.328Z" fill="#010101" stroke="#010101" stroke-width="0.09375"/>
<path d="M1106.73 591.937C1115.72 590.398 1125.15 596.554 1125.15 604.04C1125.75 610.756 1118.81 617.052 1110.67 617.402C1102.53 618.101 1094.56 612.715 1093.79 606.068C1092.67 599.492 1098.76 592.916 1106.73 591.937V591.937Z" fill="black" stroke="black" stroke-width="0.09375"/>
<path d="M1667.18 592.566C1682.35 590.538 1698.03 599.562 1700.86 611.875C1704.29 623.768 1694.95 636.92 1680.64 640.418C1666.93 644.336 1650.56 638.669 1644.3 628.035C1638.39 618.801 1640.87 606.628 1650.13 599.422C1654.67 595.715 1660.76 593.266 1667.18 592.566Z" fill="black" stroke="black" stroke-width="0.09375"/>
<path d="M1432.37 595.365C1440.86 593.826 1450.03 595.015 1457.48 598.653C1467.68 603.41 1474.54 612.575 1475.05 622.159C1475.91 633.422 1467.68 644.686 1455.17 649.443C1446.43 652.941 1435.8 653.29 1426.8 650.352C1417.46 647.344 1409.84 640.978 1406.58 633.282C1403.49 626.426 1403.84 618.591 1407.52 611.875C1411.89 603.55 1421.4 597.184 1432.37 595.365V595.365Z" fill="black" stroke="black" stroke-width="0.09375"/>
<path d="M1356.1 610.826C1364.33 608.587 1373.67 612.924 1376.24 619.57C1378.38 624.537 1376.84 630.554 1372.13 634.192C1367.84 637.69 1361.07 638.879 1355.42 637.06C1348.22 634.891 1343.51 628.385 1344.62 622.229C1345.31 617.052 1349.93 612.295 1356.1 610.826Z" fill="black" stroke="black" stroke-width="0.09375"/>
<path d="M1584.91 615.583C1600.08 613.204 1616.54 617.542 1627.16 626.706C1638.05 635.661 1642.76 649.303 1639.42 661.616C1636.5 673.019 1626.73 683.163 1613.79 688.13C1600.77 693.377 1584.83 693.237 1571.97 687.85C1559.29 682.673 1549.78 672.599 1547.04 661.196C1544.12 650.142 1547.72 638.179 1556.46 629.435C1563.49 622.159 1573.77 617.122 1584.91 615.583V615.583Z" fill="black" stroke="black" stroke-width="0.09375"/>
<path d="M1171 623.278C1176.83 621.459 1183.85 624.887 1184.71 629.924C1186.08 635.101 1180.43 640.348 1174.08 639.998C1168.26 639.928 1163.29 635.451 1163.89 630.694C1164.23 627.406 1167.06 624.328 1171 623.278Z" fill="black" stroke="black" stroke-width="0.09375"/>
<path d="M1256.7 636.011C1265.01 634.402 1274.18 638.739 1276.66 645.455C1278.72 650.422 1277.01 656.229 1272.38 659.867C1267.24 664.204 1258.41 665.253 1251.98 662.245C1246.16 659.727 1242.47 654.27 1242.98 648.883C1243.33 642.727 1249.33 637.13 1256.7 636.011Z" fill="black" stroke="black" stroke-width="0.09375"/>
<path d="M1512.93 647.134C1519.01 646.154 1525.53 647.903 1529.73 651.541C1534.7 655.739 1536.24 662.385 1533.41 667.771C1530.32 674.138 1521.58 678.125 1513.44 676.936C1504.62 675.957 1497.59 669.241 1497.67 662.035C1497.5 654.969 1504.36 648.323 1512.93 647.134V647.134Z" fill="black" stroke="black" stroke-width="0.09375"/>
<path d="M1388.58 647.624C1393.21 646.015 1398.78 649.653 1397.92 653.71C1397.5 658.048 1390.3 660.286 1386.44 657.348C1382.41 654.69 1383.7 648.813 1388.58 647.624V647.624Z" fill="#010101" stroke="#010101" stroke-width="0.09375"/>
<path d="M1689.46 652.731C1705.15 651.262 1721.43 656.788 1731.2 666.932C1740.54 676.237 1743.97 689.319 1740.02 700.932C1736.6 711.496 1727.43 720.73 1715.34 725.488C1702.66 730.665 1687.15 730.804 1674.38 725.837C1660.84 720.8 1650.73 710.167 1648.07 698.274C1645.07 686.101 1649.96 672.879 1660.67 664.064C1668.3 657.698 1678.67 653.64 1689.46 652.731Z" fill="black" stroke="black" stroke-width="0.09375"/>
<path d="M2073.47 657.488C2078.44 655.109 2085.38 658.817 2084.7 663.504C2084.61 668.052 2077.58 671.06 2072.96 668.471C2067.81 666.233 2068.16 659.447 2073.47 657.488V657.488Z" fill="#020202" stroke="#020202" stroke-width="0.09375"/>
<path d="M2105.86 657.628C2115.38 655.949 2125.75 660.846 2128.66 668.401C2130.89 673.578 2129.6 679.594 2125.4 683.862C2121.72 687.71 2115.8 690.018 2109.89 690.018C2102.44 690.158 2095.07 686.52 2091.81 681.064C2088.64 676.027 2088.98 669.66 2092.75 664.903C2095.67 661.125 2100.55 658.467 2105.86 657.628Z" fill="black" stroke="black" stroke-width="0.09375"/>
<path d="M1326.97 659.657C1333.65 657.348 1341.96 661.825 1341.96 667.772C1342.48 673.228 1336.05 678.056 1329.45 677.216C1323.8 676.726 1319.25 672.319 1319.77 667.702C1319.85 664.134 1322.94 660.846 1326.97 659.657Z" fill="black" stroke="black" stroke-width="0.09375"/>
<path d="M1456.37 664.064C1470.17 661.475 1485.16 669.171 1488.42 680.434C1492.1 691.278 1484.05 703.66 1470.94 707.088C1457.83 711.216 1441.8 705.339 1436.57 694.706C1431.43 685.331 1435.54 673.508 1445.91 667.772C1449 665.953 1452.6 664.693 1456.37 664.064Z" fill="black" stroke="black" stroke-width="0.09375"/>
<path d="M2156.51 664.484C2160.71 662.945 2165.85 666.023 2165.42 669.731C2165.34 673.858 2158.74 676.307 2154.88 673.578C2150.94 671.34 2151.97 665.743 2156.51 664.484V664.484Z" fill="#020202" stroke="#020202" stroke-width="0.09375"/>
<path d="M2022.74 665.113C2028.99 663.434 2036.19 667.352 2036.71 672.669C2037.65 677.986 2031.56 683.093 2025.05 682.533C2019.05 682.253 2014.17 677.496 2015.03 672.669C2015.45 669.171 2018.62 666.093 2022.74 665.113Z" fill="#010101" stroke="#010101" stroke-width="0.09375"/>
<path d="M2184.79 665.113C2187.96 663.924 2191.9 666.233 2191.65 669.101C2191.73 672.319 2186.33 674.278 2183.42 672.109C2180.42 670.29 2181.28 666.023 2184.79 665.113Z" fill="#010101" stroke="#010101" stroke-width="0.09375"/>
<path d="M1415.32 666.092C1420.12 664.623 1425.52 668.471 1424.32 672.599C1423.63 676.866 1416.43 678.825 1412.75 675.747C1408.89 672.948 1410.35 667.212 1415.32 666.092Z" fill="#010101" stroke="#010101" stroke-width="0.09375"/>
<path d="M1373.24 668.052C1378.04 666.582 1383.87 669.311 1384.81 673.438C1386.01 677.496 1382.16 681.833 1377.1 682.183C1372.47 682.743 1367.76 679.735 1367.24 675.957C1366.64 672.529 1369.3 669.101 1373.24 668.052V668.052Z" fill="#010101" stroke="#010101" stroke-width="0.09375"/>
<path d="M2136.8 669.941C2139.37 668.611 2143.23 670.15 2143.48 672.669C2144.17 675.467 2139.97 677.916 2136.89 676.447C2133.89 675.257 2133.63 671.2 2136.8 669.941Z" fill="#020202" stroke="#020202" stroke-width="0.09375"/>
<path d="M2057.96 672.389C2064.99 670.78 2072.96 672.669 2077.84 677.076C2082.73 681.204 2084.52 687.5 2082.64 692.957C2080.58 698.833 2074.33 703.59 2066.87 704.71C2059.59 705.899 2051.62 703.45 2047.16 698.623C2042.96 694.286 2041.68 688.27 2043.9 683.023C2046.05 677.846 2051.45 673.718 2057.96 672.389Z" fill="black" stroke="black" stroke-width="0.09375"/>
<path d="M2220.78 672.179C2225.67 670.15 2232.01 673.648 2231.41 678.126C2231.32 682.883 2223.7 685.681 2219.33 682.603C2214.96 680.014 2215.81 673.858 2220.78 672.179V672.179Z" fill="#010101" stroke="#010101" stroke-width="0.09375"/>
<path d="M2199.36 672.879C2205.19 670.78 2212.3 675.118 2211.53 680.295C2211.36 685.682 2202.87 689.04 2197.56 685.822C2191.56 682.743 2192.76 674.628 2199.36 672.879Z" fill="#010101" stroke="#010101" stroke-width="0.09375"/>
<path d="M2172.79 675.047C2178.88 673.578 2185.48 677.916 2185.13 683.093C2185.22 688.2 2178.53 692.257 2172.54 690.788C2167.14 689.739 2163.79 684.702 2165.68 680.434C2166.71 677.846 2169.54 675.677 2172.79 675.047Z" fill="#010101" stroke="#010101" stroke-width="0.09375"/>
<path d="M2241.44 677.286C2247.69 675.817 2254.46 680.644 2253.35 685.891C2252.83 690.788 2246.15 694.216 2240.58 692.467C2235.01 691.068 2232.27 685.261 2235.27 681.204C2236.55 679.245 2238.78 677.776 2241.44 677.286V677.286Z" fill="#010101" stroke="#010101" stroke-width="0.09375"/>
<path d="M2148.8 679.874C2154.11 677.566 2161.05 681.693 2159.85 686.521C2159.25 691.278 2151.45 693.586 2147.17 690.368C2142.97 687.71 2143.83 681.554 2148.8 679.874V679.874Z" fill="#020202" stroke="#020202" stroke-width="0.09375"/>
<path d="M1994.54 680.714C2007.83 678.965 2021.8 685.052 2027.54 694.986C2032.85 703.591 2031.39 714.574 2024.02 722.129C2015.54 731.294 1999.26 734.722 1986.4 729.965C1973.89 725.697 1965.75 714.364 1967.55 703.311C1969.01 691.977 1980.66 682.183 1994.54 680.714Z" fill="black" stroke="black" stroke-width="0.09375"/>
<path d="M1397.24 686.311C1407.95 683.722 1420.46 687.85 1425.86 695.895C1430.92 702.821 1430.15 712.195 1424.06 718.631C1417.98 725.347 1406.49 728.426 1396.72 725.907C1389.7 724.228 1383.7 719.891 1380.87 714.434C1378.04 709.257 1378.04 703.241 1380.87 698.064C1383.78 692.327 1389.95 687.92 1397.24 686.311V686.311Z" fill="black" stroke="black" stroke-width="0.09375"/>
<path d="M1351.73 686.731C1358.33 684.912 1366.04 689.249 1366.04 694.986C1366.64 700.023 1361.07 704.71 1354.9 704.5C1349.08 704.57 1343.76 700.373 1343.85 695.545C1343.68 691.628 1347.02 687.78 1351.73 686.731V686.731Z" fill="#010101" stroke="#010101" stroke-width="0.09375"/>
<path d="M1527.5 687.71C1541.98 684.912 1558.01 689.879 1566.75 699.673C1575.83 709.397 1576.86 723.599 1569.23 734.162C1561.69 745.216 1545.49 751.652 1530.15 749.693C1515.24 748.014 1502.13 738.64 1498.45 726.747C1494.68 715.973 1498.87 703.8 1508.64 696.035C1513.87 691.908 1520.47 688.969 1527.5 687.71V687.71Z" fill="black" stroke="black" stroke-width="0.09375"/>
<path d="M1313.26 688.27C1319.17 686.241 1326.54 689.459 1327.91 694.566C1329.71 699.533 1325.17 705.13 1318.91 705.759C1312.91 706.669 1306.57 702.751 1306.14 697.714C1305.46 693.796 1308.63 689.669 1313.26 688.27Z" fill="black" stroke="black" stroke-width="0.09375"/>
<path d="M2218.21 688.34C2224.55 686.171 2232.44 689.389 2234.24 694.776C2236.29 699.813 2232.35 705.69 2226.1 707.159C2220.01 708.838 2212.81 705.69 2211.01 700.722C2208.87 695.825 2212.3 690.019 2218.21 688.34V688.34Z" fill="#010101" stroke="#010101" stroke-width="0.09375"/>
<path d="M2134.31 689.808C2137.23 688.829 2140.74 690.998 2140.4 693.586C2140.31 696.385 2135.86 698.064 2133.2 696.315C2130.29 694.706 2131.06 690.648 2134.31 689.808V689.808Z" fill="#020202" stroke="#020202" stroke-width="0.09375"/>
<path d="M2192.5 691.837C2198.84 689.879 2205.87 695.195 2204.07 700.442C2202.87 705.689 2194.05 707.928 2189.42 704.22C2184.19 700.862 2186.08 693.237 2192.5 691.837V691.837Z" fill="#010101" stroke="#010101" stroke-width="0.09375"/>
<path d="M2115.38 693.796C2120.26 692.047 2126.26 695.475 2125.92 699.813C2126.09 704.57 2118.63 707.788 2113.92 704.99C2108.69 702.471 2109.63 695.335 2115.38 693.796Z" fill="#010101" stroke="#010101" stroke-width="0.09375"/>
<path d="M2089.67 695.265C2094.89 693.027 2101.66 697.224 2100.55 701.981C2099.95 706.669 2092.24 709.117 2087.95 705.899C2083.58 703.171 2084.61 696.944 2089.67 695.265Z" fill="#010101" stroke="#010101" stroke-width="0.09375"/>
<path d="M2174.51 695.965C2178.36 695.126 2182.22 698.623 2180.59 701.632C2179.48 704.57 2174.34 705.409 2171.85 703.101C2169.02 700.932 2170.65 696.525 2174.51 695.965V695.965Z" fill="#020202" stroke="#020202" stroke-width="0.09375"/>
<path d="M2153.17 696.735C2158.14 694.566 2164.65 698.134 2164.22 702.681C2164.22 707.368 2157.11 710.446 2152.4 707.788C2147.26 705.479 2147.68 698.623 2153.17 696.735V696.735Z" fill="#010101" stroke="#010101" stroke-width="0.09375"/>
<path d="M1939.7 698.274C1945.7 697.154 1952.38 698.973 1956.24 702.821C1960.35 706.669 1961.38 712.475 1958.81 717.162C1955.98 722.759 1948.27 726.257 1940.98 725.348C1933.18 724.578 1926.76 718.841 1926.5 712.475C1925.99 705.899 1931.9 699.603 1939.7 698.274V698.274Z" fill="black" stroke="black" stroke-width="0.09375"/>
<path d="M2134.14 703.521C2138.69 701.422 2144.86 704.78 2144.26 708.977C2144.26 713.175 2137.66 715.833 2133.46 713.455C2129 711.286 2129.43 705.269 2134.14 703.521V703.521Z" fill="#010101" stroke="#010101" stroke-width="0.09375"/>
<path d="M1622.62 704.43C1628.28 703.52 1634.36 705.06 1638.39 708.418C1643.62 712.685 1644.9 719.821 1641.22 725.068C1637.62 730.664 1629.13 733.673 1621.59 731.994C1613.96 730.524 1608.31 724.438 1608.57 718.072C1608.57 711.636 1614.74 705.549 1622.62 704.43Z" fill="black" stroke="black" stroke-width="0.09375"/>
<path d="M2075.96 709.327C2080.93 707.998 2086.5 711.706 2085.81 715.973C2085.64 720.731 2077.93 723.529 2073.47 720.451C2068.41 717.652 2070.04 710.517 2075.96 709.327Z" fill="#010101" stroke="#010101" stroke-width="0.09375"/>
<path d="M2106.81 709.467C2115.46 707.508 2125.15 712.965 2126 720.24C2127.29 727.236 2120.26 734.232 2111.69 734.582C2103.81 735.211 2096.01 730.174 2095.07 723.738C2093.69 717.372 2099.09 710.796 2106.81 709.467Z" fill="black" stroke="black" stroke-width="0.09375"/>
<path d="M2171.08 709.117C2173.82 708.348 2176.91 710.726 2175.79 712.965C2175.11 715.204 2171.25 715.903 2169.45 714.224C2167.48 712.685 2168.42 709.677 2171.08 709.117Z" fill="#020202" stroke="#020202" stroke-width="0.09375"/>
<path d="M2045.96 710.586C2052.39 708.348 2060.53 711.846 2061.9 717.512C2063.62 722.689 2058.9 728.496 2052.47 729.265C2046.3 730.315 2039.71 726.607 2038.59 721.57C2037.39 717.023 2040.65 712.195 2045.96 710.586V710.586Z" fill="black" stroke="black" stroke-width="0.09375"/>
<path d="M2186.59 710.726C2190.79 709.187 2196.02 712.126 2195.59 715.903C2195.59 719.891 2189.33 722.409 2185.48 720.031C2181.19 717.932 2181.88 712.126 2186.59 710.726Z" fill="black" stroke="black" stroke-width="0.09375"/>
<path d="M2204.5 710.586C2208.87 708.558 2214.78 711.916 2213.93 715.903C2213.58 719.751 2207.5 721.99 2203.73 719.681C2199.79 717.652 2200.3 712.265 2204.5 710.586Z" fill="#010101" stroke="#010101" stroke-width="0.09375"/>
<path d="M2154.8 714.854C2158.14 713.385 2162.59 715.693 2162.34 718.771C2162.51 722.199 2156.94 724.298 2153.77 722.06C2150.77 720.311 2151.37 715.973 2154.8 714.854V714.854Z" fill="#010101" stroke="#010101" stroke-width="0.09375"/>
<path d="M1763.16 716.323C1771.82 713.805 1782.36 717.512 1785.96 724.368C1789.13 729.825 1787.67 736.821 1782.53 741.158C1777.73 745.356 1769.76 746.965 1763.16 745.076C1755.71 743.117 1750.39 737.031 1750.57 730.665C1750.48 724.368 1755.79 718.282 1763.16 716.323Z" fill="black" stroke="black" stroke-width="0.09375"/>
<path d="M2138.51 720.311C2141.68 719.122 2145.71 721.5 2145.37 724.298C2145.37 727.517 2140.14 729.405 2137.23 727.307C2134.14 725.558 2134.91 721.29 2138.51 720.311Z" fill="#020202" stroke="#020202" stroke-width="0.09375"/>
<path d="M2171.08 720.52C2176.91 718.422 2184.19 721.99 2184.62 727.166C2185.48 731.994 2180.08 736.611 2174.16 736.191C2168.42 736.051 2163.71 731.224 2164.91 726.607C2165.51 723.878 2167.99 721.57 2171.08 720.52V720.52Z" fill="#010101" stroke="#010101" stroke-width="0.09375"/>
<path d="M1451.23 721.29C1466.14 719.331 1481.65 728.146 1484.65 740.249C1488.33 752.072 1479.34 765.224 1465.2 769.002C1453.03 772.639 1438.37 768.932 1430.83 760.327C1424.15 753.051 1423.03 742.697 1428.26 734.652C1432.63 727.446 1441.46 722.269 1451.23 721.29V721.29Z" fill="black" stroke="black" stroke-width="0.09375"/>
<path d="M1913.99 721.919C1921.7 720.45 1930.01 725.557 1930.44 732.063C1931.3 738.29 1924.79 744.236 1917.07 744.306C1909.7 744.656 1902.85 739.479 1902.76 733.462C1902.33 728.006 1907.48 722.829 1913.99 721.919Z" fill="black" stroke="black" stroke-width="0.09375"/>
<path d="M2073.3 727.306C2084.18 725.417 2095.67 732.133 2097.04 741.158C2098.84 749.693 2091.12 758.508 2080.67 759.907C2072.36 761.306 2063.27 757.808 2059.24 751.722C2055.99 746.964 2055.82 740.808 2058.99 735.981C2061.73 731.504 2067.21 728.216 2073.3 727.306V727.306Z" fill="black" stroke="black" stroke-width="0.09375"/>
<path d="M1961.12 729.685C1969.01 728.286 1977.32 733.883 1976.98 740.459C1977.32 746.405 1970.55 751.792 1963.26 751.512C1956.07 751.582 1949.72 746.265 1949.98 740.459C1949.98 735.282 1954.95 730.525 1961.12 729.685Z" fill="black" stroke="black" stroke-width="0.09375"/>
<path d="M2150.51 730.315C2155.14 728.846 2160.79 731.574 2161.39 735.632C2162.42 739.899 2157.2 744.166 2151.97 743.327C2147.68 742.837 2144.34 739.199 2145.11 735.632C2145.54 733.253 2147.68 731.084 2150.51 730.315Z" fill="#010101" stroke="#010101" stroke-width="0.09375"/>
<path d="M2023.68 731.784C2029.17 730.175 2035.68 731.294 2039.79 734.652C2044.42 738.22 2045.79 744.167 2043.22 748.924C2040.73 753.541 2034.74 756.759 2028.48 756.479C2021.2 756.479 2014.51 751.652 2013.48 745.776C2012.2 739.969 2016.74 733.673 2023.68 731.784V731.784Z" fill="black" stroke="black" stroke-width="0.09375"/>
<path d="M2129.94 733.043C2134.83 731.224 2140.74 735.492 2139.29 739.689C2138.34 743.817 2131.4 745.566 2127.72 742.627C2123.86 739.969 2125.23 734.302 2129.94 733.043Z" fill="#010101" stroke="#010101" stroke-width="0.09375"/>
<path d="M1817.92 735.002C1822.46 734.232 1827.26 735.002 1831.03 737.171C1836.35 740.109 1839.18 745.636 1837.98 750.743C1837.2 754.52 1834.38 758.018 1830.43 760.047C1824.95 762.985 1817.32 762.915 1811.92 759.837C1806.1 756.689 1803.18 750.463 1805.07 745.006C1806.61 740.039 1811.75 735.981 1817.92 735.002Z" fill="black" stroke="black" stroke-width="0.09375"/>
<path d="M1710.89 737.381C1715.52 736.261 1720.66 736.681 1724.86 738.5C1730.77 740.949 1734.63 746.195 1734.71 751.652C1734.8 756.269 1732.23 760.817 1727.77 763.685C1722.37 767.323 1714.32 768.022 1708.06 765.574C1701.63 763.125 1697.35 757.459 1697.52 751.652C1697.6 745.216 1703.26 739.06 1710.89 737.381Z" fill="black" stroke="black" stroke-width="0.09375"/>
<path d="M1884.94 737.38C1891.96 735.701 1898.82 742.208 1895.91 747.664C1893.59 753.191 1883.48 754.31 1879.45 749.483C1875.34 745.286 1878.51 738.43 1884.94 737.38V737.38Z" fill="#010101" stroke="#010101" stroke-width="0.09375"/>
<path d="M1662.9 740.738C1668.98 739.199 1675.84 743.047 1676.35 748.224C1677.21 753.331 1671.55 758.298 1665.21 757.878C1658.96 757.808 1653.9 752.631 1655.18 747.664C1655.78 744.376 1658.96 741.578 1662.9 740.738Z" fill="#010101" stroke="#010101" stroke-width="0.09375"/>
<path d="M2109.46 740.878C2115.03 738.849 2121.55 743.746 2119.66 748.434C2118.38 752.911 2110.75 754.66 2106.89 751.372C2102.69 748.434 2104.24 742.277 2109.46 740.878V740.878Z" fill="#010101" stroke="#010101" stroke-width="0.09375"/>
<path d="M1235.27 741.438C1241.7 739.759 1248.47 745.286 1246.41 750.533C1245.04 755.85 1235.87 757.879 1231.33 753.961C1226.19 750.253 1228.67 742.628 1235.27 741.438V741.438Z" fill="#010101" stroke="#010101" stroke-width="0.09375"/>
<path d="M1595.97 745.565C1610.37 743.047 1626.13 749.413 1632.39 760.257C1638.9 770.61 1635.99 784.252 1625.45 792.088C1616.79 798.944 1603.34 801.392 1591.86 798.244C1578.32 794.746 1568.55 783.553 1568.97 771.94C1568.97 759.347 1580.89 747.734 1595.97 745.565Z" fill="black" stroke="black" stroke-width="0.09375"/>
<path d="M1853.14 747.104C1858.37 745.495 1864.71 748.643 1865.4 753.191C1866.6 757.878 1861.2 762.705 1855.37 762.075C1849.37 761.936 1845 756.409 1847.15 751.931C1848.09 749.693 1850.4 747.874 1853.14 747.104Z" fill="#010101" stroke="#010101" stroke-width="0.09375"/>
<path d="M1925.13 747.874C1937.21 746.195 1949.72 753.681 1951.44 763.545C1953.84 773.479 1944.67 783.833 1932.5 785.302C1920.16 787.331 1907.13 779.705 1905.5 769.561C1903.19 759.487 1912.7 749.063 1925.13 747.874V747.874Z" fill="black" stroke="black" stroke-width="0.09375"/>
<path d="M1984.26 750.673C1997.54 747.664 2012.63 752.841 2019.4 762.566C2025.22 770.331 2025.22 780.685 2019.65 788.52C2013.74 797.195 2001.23 802.512 1989.06 801.392C1977.66 800.553 1967.21 794.257 1962.92 785.582C1958.21 776.557 1960.61 765.434 1968.83 758.228C1972.95 754.59 1978.35 751.862 1984.26 750.673V750.673Z" fill="black" stroke="black" stroke-width="0.09375"/>
<path d="M1165 752.002C1172.28 749.763 1181.11 753.891 1182.57 760.117C1184.45 766.064 1178.97 772.64 1171.6 773.479C1164.74 774.529 1157.37 770.541 1156.09 764.944C1154.37 759.557 1158.57 753.611 1165 752.002V752.002Z" fill="black" stroke="black" stroke-width="0.09375"/>
<path d="M1771.73 755.989C1786.56 754.31 1802.15 758.928 1812.27 767.952C1822.46 776.767 1827.01 789.639 1824.09 801.532C1821.35 813.285 1811.58 823.709 1798.3 828.816C1785.62 833.923 1770.1 833.993 1757.42 828.886C1744.22 823.779 1734.28 813.425 1731.45 801.742C1728.54 790.269 1732.57 777.746 1742.08 768.932C1749.54 761.866 1760.33 757.179 1771.73 755.989V755.989Z" fill="black" stroke="black" stroke-width="0.09375"/>
<path d="M2045.1 759.697C2052.82 757.319 2062.16 761.026 2064.81 767.323C2067.9 773.619 2063.53 781.454 2055.65 783.623C2047.85 786.211 2038.08 782.574 2035.42 775.998C2032.42 769.631 2037.13 761.726 2045.1 759.697Z" fill="black" stroke="black" stroke-width="0.09375"/>
<path d="M1881.34 762.286C1887.34 760.397 1894.62 764.035 1895.39 769.212C1896.42 773.899 1891.96 778.656 1886.22 779.146C1880.4 779.915 1874.48 775.998 1874.14 771.17C1873.71 767.393 1876.88 763.475 1881.34 762.286V762.286Z" fill="#010101" stroke="#010101" stroke-width="0.09375"/>
<path d="M1350.19 766.063C1355.16 764.594 1360.73 768.931 1359.02 773.059C1357.82 777.186 1350.62 778.726 1347.19 775.507C1343.51 772.709 1345.31 767.112 1350.19 766.063Z" fill="#010101" stroke="#010101" stroke-width="0.09375"/>
<path d="M1315.91 766.693C1321.14 765.504 1326.28 770.471 1323.88 774.459C1322.08 778.446 1314.63 779.146 1311.8 775.578C1308.8 772.57 1311.11 767.393 1315.91 766.693V766.693Z" fill="#010101" stroke="#010101" stroke-width="0.09375"/>
<path d="M1532.64 766.833C1541.89 765.294 1551.75 770.54 1553.89 777.956C1555.95 784.042 1552.61 790.968 1546.09 794.396C1539.67 797.964 1530.58 797.684 1524.5 793.697C1518.24 789.919 1515.67 782.643 1518.33 776.697C1520.56 771.59 1526.21 767.672 1532.64 766.833V766.833Z" fill="black" stroke="black" stroke-width="0.09375"/>
<path d="M1847.15 771.03C1856.49 768.931 1866.94 773.899 1869.43 781.454C1872.43 789.01 1866.68 797.824 1857.43 800.133C1847.75 802.931 1836.18 797.894 1833.69 789.709C1830.69 781.804 1837.29 772.779 1847.15 771.03Z" fill="black" stroke="black" stroke-width="0.09375"/>
<path d="M1387.81 772.149C1392.7 770.54 1398.27 774.668 1396.9 778.796C1396.04 782.923 1389.27 784.742 1385.5 781.944C1381.3 779.285 1382.76 773.269 1387.81 772.149V772.149Z" fill="#010101" stroke="#010101" stroke-width="0.09375"/>
<path d="M1674.04 772.43C1689.64 770.331 1706.17 776.837 1713.97 787.96C1721.94 798.734 1721 813.285 1711.74 823.289C1702.83 833.573 1686.04 838.61 1671.04 835.672C1656.3 833.014 1644.13 822.94 1641.3 810.837C1638.22 799.434 1643.62 786.841 1654.67 779.495C1660.24 775.788 1667.01 773.339 1674.04 772.43V772.43Z" fill="black" stroke="black" stroke-width="0.09375"/>
<path d="M1432.46 773.059C1437.09 771.17 1443.09 774.668 1442.23 778.866C1442.06 783.133 1435.29 785.582 1431.26 782.993C1426.8 780.755 1427.57 774.598 1432.46 773.059Z" fill="#010101" stroke="#010101" stroke-width="0.09375"/>
<path d="M1475.14 775.648C1490.73 773.689 1507.19 780.615 1514.47 792.018C1521.67 802.792 1520.13 816.853 1510.61 826.298C1501.53 835.882 1485.25 840.429 1470.94 837.281C1457.05 834.553 1445.66 825.039 1442.74 813.635C1439.49 802.442 1444.71 790.059 1455.51 782.714C1461.08 778.866 1468.02 776.417 1475.14 775.648V775.648Z" fill="black" stroke="black" stroke-width="0.09375"/>
<path d="M1366.3 784.043C1372.13 782.854 1378.38 786.631 1378.47 791.528C1378.98 796.705 1372.3 801.183 1366.22 799.714C1360.82 798.804 1357.3 793.697 1359.1 789.5C1360.13 786.771 1362.96 784.603 1366.3 784.043V784.043Z" fill="#010101" stroke="#010101" stroke-width="0.09375"/>
<path d="M1411.89 786.421C1418.58 784.672 1426.2 789.289 1426.03 795.026C1426.37 800.623 1419.26 805.45 1412.58 803.981C1406.66 803.071 1402.55 797.824 1404.09 793.067C1404.87 789.919 1407.95 787.191 1411.89 786.421Z" fill="black" stroke="black" stroke-width="0.09375"/>
<path d="M1336.31 787.4C1341.02 785.511 1347.02 789.219 1345.99 793.487C1345.56 797.684 1338.96 799.923 1334.94 797.404C1330.57 795.026 1331.42 788.939 1336.31 787.4Z" fill="#010101" stroke="#010101" stroke-width="0.09375"/>
<path d="M1889.05 787.541C1897.28 785.372 1906.96 789.289 1909.96 795.865C1912.53 801.042 1910.99 807.339 1906.02 811.186C1901.31 815.104 1893.59 816.363 1887.42 814.265C1881.08 812.236 1876.54 806.919 1876.54 801.322C1876.37 795.166 1881.77 789.15 1889.05 787.541V787.541Z" fill="black" stroke="black" stroke-width="0.09375"/>
<path d="M1218.13 788.38C1226.53 786.281 1236.21 790.479 1239.04 797.265C1241.27 802.232 1239.64 808.248 1235.01 811.956C1230.04 816.154 1221.65 817.413 1215.22 814.754C1208.79 812.306 1204.76 806.429 1205.53 800.693C1206.13 794.886 1211.36 789.779 1218.13 788.38V788.38Z" fill="black" stroke="black" stroke-width="0.09375"/>
<path d="M1063.79 789.569C1069.53 787.681 1076.65 790.899 1077.68 795.866C1079.3 801.112 1073.48 806.639 1066.96 806.15C1060.45 806.219 1055.39 800.413 1057.28 795.376C1058.05 792.788 1060.62 790.549 1063.79 789.569Z" fill="#010101" stroke="#010101" stroke-width="0.09375"/>
<path d="M2032.25 789.919C2039.53 788.17 2047.76 792.508 2048.88 798.594C2050.33 804.261 2045.28 810.347 2038.33 811.396C2031.56 812.656 2024.11 808.878 2022.57 803.281C2020.6 797.615 2025.31 791.248 2032.25 789.919V789.919Z" fill="black" stroke="black" stroke-width="0.09375"/>
<path d="M1936.27 791.178C1947.15 788.87 1959.41 794.117 1963.26 802.721C1965.92 808.248 1965.24 814.824 1961.21 819.861C1957.44 824.758 1950.75 828.046 1943.64 828.536C1934.64 829.306 1925.47 825.318 1921.19 818.812C1916.9 812.656 1917.42 804.54 1922.47 798.734C1925.73 795.026 1930.7 792.228 1936.27 791.178V791.178Z" fill="black" stroke="black" stroke-width="0.09375"/>
<path d="M1152.92 798.035C1159.26 796.985 1165.69 801.672 1165.09 806.989C1164.91 812.236 1157.97 816.364 1151.8 814.825C1145.72 813.635 1142.21 807.619 1144.95 803.002C1146.49 800.343 1149.49 798.454 1152.92 798.035Z" fill="#010101" stroke="#010101" stroke-width="0.09375"/>
<path d="M1566.92 805.38C1584.31 803.211 1602.48 806.219 1617.48 813.635C1629.22 819.371 1639.07 827.766 1645.5 837.701C1653.04 849.104 1655.96 862.536 1653.9 875.338C1651.76 888.42 1644.39 900.873 1633.16 910.317C1622.71 919.272 1608.82 925.568 1594 928.087C1579.51 930.675 1564 929.626 1550.21 925.219C1534.78 920.321 1521.41 911.227 1512.84 899.754C1504.96 889.4 1501.1 877.157 1501.62 864.984C1502.13 851.203 1508.47 837.701 1519.27 827.207C1531.18 815.384 1548.49 807.479 1566.92 805.38Z" fill="black" stroke="black" stroke-width="0.09375"/>
<path d="M1858.2 807.129C1866.51 805.939 1874.91 811.956 1874.57 818.882C1874.74 825.318 1867.46 830.915 1859.66 830.495C1851.6 830.425 1844.66 823.989 1845.86 817.483C1846.55 812.236 1851.86 807.688 1858.2 807.129Z" fill="black" stroke="black" stroke-width="0.09375"/>
<path d="M1351.9 807.968C1356.79 806.22 1362.62 810.137 1361.33 814.335C1360.56 818.672 1353.36 820.631 1349.59 817.483C1345.82 814.894 1347.11 809.298 1351.9 807.968Z" fill="#010101" stroke="#010101" stroke-width="0.09375"/>
<path d="M1992.83 808.668C2007.83 805.659 2024.45 813.145 2029.42 825.038C2034.56 835.951 2029.08 849.313 2017 855.54C2007.57 860.647 1994.72 861.136 1984.77 856.659C1973.72 851.972 1966.86 841.548 1968.23 831.404C1969.26 820.561 1979.72 810.906 1992.83 808.668V808.668Z" fill="black" stroke="black" stroke-width="0.09375"/>
<path d="M1380.96 809.438C1391.5 806.849 1403.41 812.866 1405.47 821.68C1408.04 830.355 1400.07 839.94 1389.18 840.989C1378.64 842.598 1367.59 835.882 1366.47 827.137C1364.93 819.372 1371.61 811.327 1380.96 809.438Z" fill="black" stroke="black" stroke-width="0.09375"/>
<path d="M1421.32 815.664C1425.78 813.425 1432.12 816.643 1431.77 820.841C1431.86 825.038 1425.52 827.907 1421.15 825.598C1416.52 823.639 1416.61 817.553 1421.32 815.664V815.664Z" fill="#010101" stroke="#010101" stroke-width="0.09375"/>
<path d="M1890.76 826.088C1906.02 823.429 1922.56 831.614 1926.84 843.787C1931.64 855.47 1924.36 869.252 1910.82 874.499C1897.96 880.026 1880.74 876.947 1871.91 867.503C1863.51 859.248 1862.66 846.586 1869.86 837.561C1874.48 831.684 1882.2 827.347 1890.76 826.088V826.088Z" fill="black" stroke="black" stroke-width="0.09375"/>
<path d="M1827.44 826.857C1832.66 824.968 1839.43 827.277 1841.4 831.684C1843.97 836.442 1840.03 842.458 1833.78 843.437C1827.69 844.697 1821.09 840.709 1820.84 835.602C1820.41 831.894 1823.32 828.186 1827.44 826.857Z" fill="#010101" stroke="#010101" stroke-width="0.09375"/>
<path d="M1287.46 827.417C1293.72 825.738 1301 829.586 1301.6 834.973C1302.71 840.429 1296.54 845.816 1289.86 845.257C1283.6 845.047 1278.55 840.01 1279.58 834.973C1280.09 831.475 1283.35 828.397 1287.46 827.417Z" fill="#010101" stroke="#010101" stroke-width="0.09375"/>
<path d="M1943.13 835.882C1949.98 833.853 1958.29 837.141 1960.52 842.738C1963.26 848.334 1959.24 855.26 1952.21 857.219C1945.18 859.458 1936.44 855.96 1934.38 850.013C1931.9 844.417 1936.18 837.701 1943.13 835.882Z" fill="black" stroke="black" stroke-width="0.09375"/>
<path d="M1730.6 839.45C1736.77 838.26 1743.54 839.24 1748.77 842.248C1754.34 845.256 1757.94 850.503 1758.54 855.89C1759.39 863.026 1754.59 870.301 1746.97 873.729C1738.82 877.507 1727.86 876.528 1720.91 871.351C1714.66 866.943 1711.83 859.528 1713.97 853.022C1715.77 846.375 1722.46 840.919 1730.6 839.45V839.45Z" fill="black" stroke="black" stroke-width="0.09375"/>
<path d="M1433.15 841.409C1439.92 839.59 1447.54 844.417 1447.28 850.154C1447.46 855.191 1441.63 859.668 1435.46 859.178C1429.2 859.038 1424.06 854.001 1425.09 848.964C1425.69 845.466 1429.03 842.388 1433.15 841.409V841.409Z" fill="black" stroke="black" stroke-width="0.09375"/>
<path d="M1788.01 841.479C1794.18 839.52 1801.3 844.207 1800.44 849.524C1800.1 855.26 1790.93 858.688 1785.44 855.051C1779.19 851.693 1780.9 843.088 1788.01 841.479Z" fill="#010101" stroke="#010101" stroke-width="0.09375"/>
<path d="M1403.24 843.577C1408.21 841.619 1414.29 845.746 1412.83 850.083C1411.98 854.071 1405.47 856.03 1401.61 853.372C1397.41 850.923 1398.44 845.046 1403.24 843.577Z" fill="#020202" stroke="#020202" stroke-width="0.09375"/>
<path d="M1680.89 848.614C1686.81 847.565 1693.23 849.034 1697.6 852.532C1702.83 856.52 1704.8 863.166 1702.23 868.692C1699.66 874.779 1691.86 878.976 1683.98 878.626C1674.72 878.486 1666.41 871.91 1666.15 864.285C1665.47 857.009 1672.15 849.943 1680.89 848.614V848.614Z" fill="black" stroke="black" stroke-width="0.09375"/>
<path d="M1842.86 851.412C1851.34 849.873 1860.17 855.82 1859.91 862.885C1860.26 869.601 1852.37 875.408 1844.23 874.639C1836.09 874.219 1829.66 867.433 1831.38 860.857C1832.32 856.169 1837.12 852.252 1842.86 851.412V851.412Z" fill="black" stroke="black" stroke-width="0.09375"/>
<path d="M1467.42 857.499C1474.02 855.54 1481.82 859.948 1481.91 865.684C1482.42 870.791 1476.85 875.548 1470.59 875.269C1464.77 875.269 1459.63 871.071 1459.71 866.384C1459.54 862.396 1462.88 858.688 1467.42 857.499V857.499Z" fill="#010101" stroke="#010101" stroke-width="0.09375"/>
<path d="M1964.64 858.339C1969.09 856.38 1975.26 858.269 1977.06 862.116C1979.12 865.824 1976.63 870.581 1971.92 871.98C1967.55 873.45 1962.15 871.631 1960.27 868.133C1958.21 864.565 1960.27 859.948 1964.64 858.339Z" fill="#010101" stroke="#010101" stroke-width="0.09375"/>
<path d="M1787.24 864.075C1803.27 861.557 1820.49 868.763 1827.52 880.725C1834.55 891.779 1832.06 906.12 1821.78 915.215C1811.32 924.939 1792.99 928.157 1778.59 922.84C1763.85 917.803 1754.25 904.581 1756.05 891.569C1757.42 878.067 1770.88 866.174 1787.24 864.075Z" fill="black" stroke="black" stroke-width="0.09375"/>
<path d="M1991.97 866.734C1999.26 864.635 2008.08 868.622 2009.71 874.849C2012.03 881.495 2005.17 888.84 1996.77 888.77C1989.49 889.19 1982.8 884.153 1982.46 878.277C1981.95 873.24 1986.06 868.273 1991.97 866.734Z" fill="black" stroke="black" stroke-width="0.09375"/>
<path d="M1438.37 868.693C1442.83 866.664 1448.91 869.882 1448.48 874.009C1448.57 878.557 1441.11 881.355 1437 878.277C1433.15 875.898 1433.92 870.372 1438.37 868.693V868.693Z" fill="#010101" stroke="#010101" stroke-width="0.09375"/>
<path d="M1933.61 873.52C1947.5 871.491 1962.32 875.479 1972.09 883.734C1983.57 893.108 1987.69 907.939 1982.2 920.392C1977.23 932.355 1963.95 941.729 1948.61 943.828C1933.27 946.206 1916.73 941.169 1906.96 931.305C1897.02 921.511 1894.28 907.24 1900.28 895.487C1905.76 884.013 1918.87 875.408 1933.61 873.52V873.52Z" fill="black" stroke="black" stroke-width="0.09375"/>
<path d="M1860.86 880.025C1869.34 878.906 1878.34 881.844 1883.74 887.301C1890.85 894.367 1890.85 905.42 1883.57 912.416C1876.45 919.762 1862.83 921.93 1852.89 917.313C1843.72 913.396 1838.4 904.371 1840.55 896.046C1842.26 887.931 1850.83 881.215 1860.86 880.025Z" fill="black" stroke="black" stroke-width="0.09375"/>
<path d="M1484.73 880.725C1489.7 879.326 1495.19 883.663 1493.48 887.791C1492.28 891.918 1485.16 893.458 1481.65 890.239C1477.88 887.441 1479.76 881.705 1484.73 880.725V880.725Z" fill="#010101" stroke="#010101" stroke-width="0.09375"/>
<path d="M1693.75 887.721C1708.23 885.342 1723.74 888.351 1735.48 895.696C1746.54 902.482 1753.99 913.046 1755.71 924.309C1757.94 937.322 1752.02 950.963 1740.62 960.128C1730.34 968.523 1715.69 973.07 1701.2 972.441C1685.78 971.881 1670.95 965.445 1661.78 955.301C1651.93 944.737 1648.76 930.326 1653.47 917.663C1658.61 902.552 1674.81 890.449 1693.75 887.721V887.721Z" fill="black" stroke="black" stroke-width="0.09375"/>
<path d="M1352.59 894.437C1362.27 891.988 1373.41 898.075 1374.36 906.33C1375.73 913.676 1368.79 921.091 1359.79 922.001C1351.05 923.26 1341.96 918.153 1340.25 911.087C1338.11 904.021 1344.02 896.186 1352.59 894.437V894.437Z" fill="black" stroke="black" stroke-width="0.09375"/>
<path d="M1080.16 899.684C1088.3 898.215 1097.13 903.112 1098.5 909.828C1100.56 917.103 1093.19 924.729 1084.1 925.009C1076.22 925.568 1068.51 920.461 1067.65 914.025C1066.28 907.449 1072.19 900.733 1080.16 899.684Z" fill="black" stroke="black" stroke-width="0.09375"/>
<path d="M1204.34 904.441C1211.7 902.692 1220.1 906.05 1222.85 911.857C1225.25 916.334 1223.96 921.931 1219.85 925.429C1215.82 928.997 1209.22 930.396 1203.65 928.857C1197.57 927.387 1193.02 922.56 1192.77 917.313C1192.34 911.577 1197.39 905.84 1204.34 904.441Z" fill="black" stroke="black" stroke-width="0.09375"/>
<path d="M1479.51 908.079C1496.05 905.98 1513.1 915.774 1516.44 929.136C1520.3 941.729 1511.39 955.791 1496.65 960.548C1483.88 965.025 1468.02 962.157 1458.85 953.622C1448.83 944.877 1447.37 930.606 1455.43 920.602C1460.74 913.746 1469.74 909.058 1479.51 908.079V908.079Z" fill="black" stroke="black" stroke-width="0.09375"/>
<path d="M1877.14 925.568C1886.57 922.98 1897.54 928.367 1899.16 936.342C1901.22 943.828 1894.54 951.803 1885.28 952.992C1876.03 954.601 1866.08 948.865 1864.97 941.169C1863.6 934.453 1869.08 927.387 1877.14 925.568Z" fill="black" stroke="black" stroke-width="0.09375"/>
<path d="M1567.77 938.091C1572.92 937.182 1578.49 940.47 1578.92 944.737C1579.77 949.285 1574.72 953.692 1569.06 953.342C1563.75 953.272 1559.38 949.005 1560.15 944.737C1560.58 941.449 1563.83 938.651 1567.77 938.091Z" fill="#010101" stroke="#010101" stroke-width="0.09375"/>
<path d="M1615.76 938.791C1630.25 936.762 1645.33 945.157 1648.41 956.91C1652.1 968.383 1643.36 981.255 1629.48 984.823C1616.88 988.601 1601.71 984.054 1595.03 974.679C1587.83 965.375 1590.14 952.153 1600.17 944.877C1604.45 941.659 1609.94 939.49 1615.76 938.791V938.791Z" fill="black" stroke="black" stroke-width="0.09375"/>
<path d="M1799.16 939.7C1813.72 937.741 1828.98 939.21 1842.43 944.107C1856.74 949.214 1869.08 958.029 1877.14 968.943C1886.22 981.045 1889.91 995.737 1887.51 1009.8C1885.19 1023.37 1877.22 1036.31 1865.23 1045.9C1855.2 1053.94 1842.43 1059.61 1828.63 1062.13C1812.7 1065.14 1795.56 1063.81 1780.64 1058.28C1768.22 1053.8 1757.34 1046.53 1749.45 1037.5C1739.08 1025.75 1734.03 1010.92 1735.48 996.506C1736.51 984.473 1742.08 972.79 1751.08 963.276C1762.73 950.754 1780.3 942.149 1799.16 939.7V939.7Z" fill="black" stroke="black" stroke-width="0.09375"/>
<path d="M1422.95 942.359C1430.49 940.26 1439.32 944.667 1440.6 951.103C1442.31 957.33 1436.32 963.906 1428.6 964.535C1421.23 965.445 1413.69 960.618 1413.18 954.531C1412.24 949.214 1416.69 943.758 1422.95 942.359Z" fill="black" stroke="black" stroke-width="0.09375"/>
<path d="M1925.04 950.544C1933.27 949.005 1942.27 953.202 1944.84 959.708C1947.07 964.745 1945.44 970.762 1940.64 974.47C1935.58 978.597 1927.36 979.716 1921.02 977.128C1914.5 974.679 1910.39 968.733 1911.25 962.856C1911.93 956.91 1917.84 951.663 1925.04 950.544V950.544Z" fill="black" stroke="black" stroke-width="0.09375"/>
<path d="M1530.84 959.568C1545.66 957.609 1561.26 961.177 1572.74 969.083C1583.03 976.079 1589.8 986.362 1591.17 997.206C1593.05 1009.94 1587.14 1023.16 1576 1032.19C1566.15 1040.23 1552.18 1044.85 1538.29 1044.64C1523.9 1044.5 1509.76 1039.25 1500.16 1030.51C1487.91 1019.59 1483.45 1003.22 1489.02 989.091C1494.59 973.84 1511.56 961.877 1530.84 959.568V959.568Z" fill="black" stroke="black" stroke-width="0.09375"/>
<path d="M1380.1 963.276C1392.61 960.548 1406.84 965.725 1412.75 975.099C1417.03 981.535 1417.38 989.58 1413.61 996.226C1409.58 1003.57 1400.67 1008.96 1390.9 1009.94C1377.36 1011.62 1363.22 1004.34 1359.36 993.638C1355.5 984.404 1359.7 973.49 1369.22 967.544C1372.39 965.585 1376.16 964.046 1380.1 963.276V963.276Z" fill="black" stroke="black" stroke-width="0.09375"/>
<path d="M1447.71 969.433C1458.43 967.334 1470.25 972.231 1474.79 980.416C1479.25 987.902 1476.94 997.626 1469.39 1003.22C1461.94 1009.1 1449.77 1010.29 1440.86 1006.02C1433.14 1002.52 1428.17 995.317 1428.6 988.041C1428.77 979.297 1437.17 971.182 1447.71 969.433V969.433Z" fill="black" stroke="black" stroke-width="0.09375"/>
<path d="M1679.18 982.864C1694.78 979.926 1712 985.733 1720.57 996.786C1729.23 1007.28 1729.06 1021.97 1720.23 1032.39C1711.74 1042.96 1695.12 1048.56 1679.95 1045.97C1665.21 1043.73 1652.79 1034.14 1649.27 1022.25C1645.93 1011.69 1649.7 999.934 1658.96 992.099C1664.27 987.482 1671.47 984.194 1679.18 982.864V982.864Z" fill="black" stroke="black" stroke-width="0.09375"/>
<path d="M1907.99 986.992C1914.16 984.963 1921.36 989.79 1920.07 995.177C1919.39 1000.63 1910.39 1003.5 1905.33 999.864C1899.76 996.506 1901.39 988.601 1907.99 986.992V986.992Z" fill="#010101" stroke="#010101" stroke-width="0.09375"/>
<path d="M1266.98 991.259C1280.61 988.951 1295.17 997.206 1297.32 1008.4C1300.14 1019.1 1291.06 1030.58 1278.03 1033.02C1265.44 1035.96 1251.04 1029.67 1246.84 1019.52C1242.56 1010.29 1247.44 999.095 1257.81 994.058C1260.55 992.728 1263.72 991.749 1266.98 991.259Z" fill="black" stroke="black" stroke-width="0.09375"/>
<path d="M1614.05 992.869C1619.28 991.749 1625.11 992.869 1629.39 995.597C1635.22 999.305 1637.53 1006.16 1634.96 1011.83C1632.22 1018.19 1623.56 1022.39 1615.42 1021.13C1607.45 1020.15 1600.85 1014.28 1600.6 1007.7C1599.91 1000.91 1606 994.338 1614.05 992.869V992.869Z" fill="black" stroke="black" stroke-width="0.09375"/>
<path d="M1314.03 997.346C1319.08 995.597 1325.51 998.395 1326.45 1002.87C1327.82 1007.21 1323.45 1011.9 1317.97 1012.04C1313.34 1012.39 1308.71 1009.38 1308.2 1005.6C1307.51 1002.17 1310.08 998.535 1314.03 997.346Z" fill="#010101" stroke="#010101" stroke-width="0.09375"/>
<path d="M1341.45 1014.98C1354.22 1012.32 1368.44 1019.31 1371.44 1029.81C1374.96 1039.6 1367.84 1050.79 1356.19 1054.22C1345.56 1057.79 1332.37 1054.36 1326.11 1046.53C1319.51 1038.83 1320.71 1027.5 1328.85 1020.78C1332.28 1017.91 1336.74 1015.82 1341.45 1014.98V1014.98Z" fill="black" stroke="black" stroke-width="0.09375"/>
<path d="M1411.81 1015.74C1422.35 1012.88 1434.6 1018.61 1437 1027.43C1439.74 1035.47 1433.49 1044.57 1423.72 1047.02C1415.92 1049.18 1406.66 1046.88 1401.69 1041.49C1397.07 1036.73 1396.12 1029.88 1399.38 1024.42C1401.78 1020.22 1406.41 1017.07 1411.81 1015.74V1015.74Z" fill="black" stroke="black" stroke-width="0.09375"/>
<path d="M991.893 1017.98C1004.23 1015.47 1017.69 1023.16 1018.8 1033.51C1020.69 1043.45 1010.66 1053.31 998.406 1053.8C986.923 1054.78 975.611 1047.23 974.582 1037.85C973.126 1028.83 981.095 1019.73 991.893 1017.98V1017.98Z" fill="black" stroke="black" stroke-width="0.09375"/>
<path d="M1128.07 1018.4C1133.55 1016.86 1139.81 1020.5 1139.98 1025.19C1140.49 1029.53 1135.61 1033.58 1130.29 1033.3C1125.84 1033.23 1121.81 1030.23 1121.38 1026.59C1120.87 1023.02 1123.87 1019.38 1128.07 1018.4Z" fill="#010101" stroke="#010101" stroke-width="0.09375"/>
<path d="M1069.02 1020.78C1084.79 1018.12 1102.01 1025.12 1109.13 1036.94C1116.5 1048.42 1113.5 1063.67 1101.84 1072.55C1090.62 1081.86 1071.76 1083.81 1057.88 1077.45C1044.17 1071.5 1036.2 1058.07 1039.03 1045.55C1041.43 1033.23 1053.94 1022.81 1069.02 1020.78Z" fill="black" stroke="black" stroke-width="0.09375"/>
<path d="M1465.88 1021.48C1471.71 1020.64 1477.96 1022.18 1482.16 1025.61C1487.56 1029.81 1489.45 1036.8 1486.53 1042.47C1483.45 1048.84 1474.71 1053.03 1466.4 1051.91C1457.57 1051 1450.37 1044.43 1450.28 1037.22C1449.68 1029.67 1456.8 1022.53 1465.88 1021.48V1021.48Z" fill="black" stroke="black" stroke-width="0.09375"/>
<path d="M781.079 1024.77C786.564 1023.37 792.82 1024.84 796.762 1028.2C801.304 1031.91 802.418 1037.99 799.59 1042.61C796.676 1047.72 789.306 1050.72 782.536 1049.61C775.338 1048.56 769.682 1043.03 769.853 1037.08C769.682 1031.56 774.566 1026.31 781.079 1024.77V1024.77Z" fill="black" stroke="black" stroke-width="0.09375"/>
<path d="M1163.29 1024.91C1168.77 1023.58 1174.94 1024.28 1179.74 1026.87C1184.88 1029.53 1188.4 1034.21 1188.91 1039.18C1189.6 1044.64 1186.6 1050.16 1181.37 1053.52C1175.88 1057.09 1168 1058.07 1161.49 1055.83C1154.03 1053.45 1148.8 1047.16 1148.89 1040.58C1148.72 1033.51 1154.97 1026.8 1163.29 1024.91V1024.91Z" fill="black" stroke="black" stroke-width="0.09375"/>
<path d="M1220.7 1026.24C1227.3 1024.42 1234.84 1028.62 1235.36 1034.21C1236.21 1039.53 1230.47 1044.78 1223.87 1044.57C1217.1 1044.71 1211.28 1039.11 1212.65 1033.65C1213.33 1030.23 1216.59 1027.22 1220.7 1026.24V1026.24Z" fill="black" stroke="black" stroke-width="0.09375"/>
<path d="M1302.2 1028.41C1306.91 1026.87 1312.91 1029.11 1314.37 1033.16C1316.17 1037.15 1312.83 1041.98 1307.77 1042.89C1303.14 1043.94 1297.83 1041.49 1296.63 1037.71C1295 1034 1297.74 1029.67 1302.2 1028.41Z" fill="#010101" stroke="#010101" stroke-width="0.09375"/>
<path d="M1620.91 1029.74C1630.08 1027.01 1641.05 1031.77 1643.53 1039.39C1646.44 1046.74 1640.62 1055.34 1631.53 1057.37C1625.79 1058.77 1619.28 1057.65 1614.82 1054.36C1610.11 1051.07 1607.88 1045.69 1609.08 1040.72C1610.19 1035.75 1614.91 1031.35 1620.91 1029.74Z" fill="black" stroke="black" stroke-width="0.09375"/>
<path d="M895.913 1032.46C901.912 1030.23 909.539 1033.44 910.91 1038.62C912.538 1043.24 908.767 1048.49 903.111 1049.6C897.455 1051 890.943 1048 889.4 1043.31C887.857 1039.04 890.771 1034.07 895.913 1032.46Z" fill="#010101" stroke="#010101" stroke-width="0.09375"/>
<path d="M1249.75 1038.62C1254.9 1036.8 1261.41 1039.6 1262.35 1044.08C1263.64 1048.21 1259.7 1052.68 1254.47 1053.17C1249.33 1053.87 1244.1 1050.37 1243.93 1046.11C1243.67 1042.96 1246.24 1039.81 1249.75 1038.62Z" fill="#010101" stroke="#010101" stroke-width="0.09375"/>
<path d="M946.388 1046.32C951.102 1044.43 957.015 1048.28 955.986 1052.47C955.472 1056.53 948.959 1058.7 945.017 1056.25C940.561 1053.94 941.418 1047.72 946.388 1046.32Z" fill="#010101" stroke="#010101" stroke-width="0.09375"/>
<path d="M1126.44 1047.09C1131.24 1045.41 1137.41 1047.79 1138.78 1051.91C1140.58 1056.18 1136.72 1061.15 1131.15 1061.71C1125.92 1062.48 1120.7 1058.91 1120.52 1054.57C1120.27 1051.35 1122.84 1048.28 1126.44 1047.09Z" fill="#010101" stroke="#010101" stroke-width="0.09375"/>
<path d="M1278.98 1047.3C1289.86 1044.64 1302.29 1051.07 1303.91 1060.24C1306.14 1068.98 1298 1078.22 1287.2 1079.34C1276.41 1080.95 1265.27 1074.02 1264.24 1065.14C1262.87 1057.23 1269.64 1049.19 1278.98 1047.3V1047.3Z" fill="black" stroke="black" stroke-width="0.09375"/>
<path d="M1571.2 1048C1585.51 1044.57 1601.88 1051.98 1606.08 1063.6C1610.97 1075.14 1602.74 1088.92 1588.68 1092.84C1575.74 1097.04 1559.8 1092.14 1553.38 1082.14C1546.95 1072.9 1549.44 1060.38 1559.2 1053.31C1562.55 1050.79 1566.75 1048.91 1571.2 1048Z" fill="black" stroke="black" stroke-width="0.09375"/>
<path d="M1723.83 1048.83C1737.2 1046.39 1751.94 1051.84 1758.36 1061.71C1764.19 1070.1 1763.68 1081.09 1756.99 1088.99C1749.11 1099 1732.31 1103.33 1718.86 1098.86C1706.35 1095.08 1697.6 1084.37 1698.29 1073.46C1698.63 1061.78 1709.69 1051 1723.83 1048.83Z" fill="black" stroke="black" stroke-width="0.09375"/>
<path d="M1506.93 1050.09C1515.16 1048.56 1524.15 1050.86 1529.81 1055.9C1536.84 1061.85 1538.38 1071.43 1533.58 1078.64C1528.78 1086.4 1517.21 1090.74 1506.93 1088.71C1496.05 1086.89 1487.65 1078.36 1487.91 1069.26C1487.73 1060.24 1496.13 1051.84 1506.93 1050.09Z" fill="black" stroke="black" stroke-width="0.09375"/>
<path d="M1206.99 1052.89C1213.93 1051.84 1221.39 1052.82 1227.47 1055.76C1236.56 1059.96 1242.47 1068.42 1242.21 1076.96C1242.38 1088.36 1231.24 1098.86 1217.53 1100.53C1203.65 1102.7 1188.82 1095.43 1184.54 1084.51C1180 1074.44 1185.22 1062.34 1196.19 1056.53C1199.45 1054.78 1203.14 1053.52 1206.99 1052.89V1052.89Z" fill="black" stroke="black" stroke-width="0.09375"/>
<path d="M1439.23 1052.89C1447.11 1051.35 1455.85 1055.41 1458.34 1061.71C1460.48 1066.6 1458.68 1072.41 1453.97 1075.91C1449.17 1079.62 1441.63 1080.6 1435.72 1078.22C1429.97 1076.05 1426.03 1070.94 1426.29 1065.77C1426.2 1059.68 1431.95 1054.08 1439.23 1052.89V1052.89Z" fill="black" stroke="black" stroke-width="0.09375"/>
<path d="M1383.44 1055.48C1390.04 1053.73 1397.58 1058 1398.01 1063.67C1398.78 1068.91 1393.12 1074.02 1386.61 1073.88C1380.7 1074.02 1375.3 1069.89 1375.13 1065.07C1374.61 1060.8 1378.38 1056.6 1383.44 1055.48V1055.48Z" fill="#010101" stroke="#010101" stroke-width="0.09375"/>
<path d="M1654.24 1057.51C1661.78 1056.39 1669.84 1058.7 1674.81 1063.39C1679.78 1067.93 1681.67 1074.58 1679.61 1080.46C1677.47 1086.75 1670.78 1091.93 1662.9 1093.26C1655.01 1094.73 1646.44 1092.35 1641.22 1087.38C1636.85 1083.25 1634.87 1077.45 1636.16 1072.13C1637.79 1064.86 1645.33 1058.7 1654.24 1057.51V1057.51Z" fill="black" stroke="black" stroke-width="0.09375"/>
<path d="M1026.17 1061.85C1031.57 1060.52 1037.06 1065.42 1035 1069.68C1033.54 1073.95 1026 1075.28 1022.49 1071.92C1018.54 1068.84 1020.77 1062.69 1026.17 1061.85Z" fill="#010101" stroke="#010101" stroke-width="0.09375"/>
<path d="M889.914 1063.32C894.713 1061.85 900.198 1065.77 898.912 1069.82C898.141 1074.02 891.2 1075.91 887.429 1072.97C883.487 1070.38 884.944 1064.44 889.914 1063.32V1063.32Z" fill="#010101" stroke="#010101" stroke-width="0.09375"/>
<path d="M920.765 1064.65C925.478 1062.76 931.391 1066.4 930.534 1070.59C930.106 1074.79 923.336 1077.1 919.394 1074.44C915.109 1071.99 915.88 1066.05 920.765 1064.65Z" fill="#020202" stroke="#020202" stroke-width="0.09375"/>
<path d="M1152.23 1065.63C1158.83 1063.74 1166.54 1067.93 1167.06 1073.6C1168 1079.27 1161.4 1084.58 1154.46 1083.88C1148.03 1083.46 1143.06 1078.08 1144.35 1072.97C1145.03 1069.54 1148.2 1066.6 1152.23 1065.63V1065.63Z" fill="#010101" stroke="#010101" stroke-width="0.09375"/>
<path d="M1782.87 1071.71C1789.64 1070.17 1796.33 1076.12 1794.01 1081.51C1792.21 1087.1 1782.19 1088.78 1777.82 1084.23C1773.1 1080.18 1776.19 1072.69 1782.87 1071.71Z" fill="#010101" stroke="#010101" stroke-width="0.09375"/>
<path d="M955.986 1072.48C962.156 1070.38 969.783 1073.81 970.897 1079.2C972.611 1084.86 966.184 1090.67 959.157 1090.04C952.987 1089.83 948.016 1084.79 948.959 1079.9C949.302 1076.54 952.216 1073.67 955.986 1072.48Z" fill="#010101" stroke="#010101" stroke-width="0.09375"/>
<path d="M1121.3 1081.58C1130.72 1080.25 1140.75 1085.28 1143.49 1092.77C1145.8 1098.51 1143.75 1105.22 1138.43 1109.42C1132.52 1114.32 1122.67 1115.58 1115.21 1112.36C1107.84 1109.35 1103.3 1102.49 1104.41 1095.85C1105.36 1088.71 1112.55 1082.56 1121.3 1081.58Z" fill="black" stroke="black" stroke-width="0.09375"/>
<path d="M1020.94 1082C1031.23 1080.25 1042.37 1085.42 1045.8 1093.47C1048.71 1099.7 1047 1107.18 1041.43 1112.08C1035.94 1117.04 1026.94 1119.21 1019.06 1117.39C1009.38 1115.37 1002.18 1107.53 1002.78 1099.35C1002.86 1091.02 1010.92 1083.39 1020.94 1082V1082Z" fill="black" stroke="black" stroke-width="0.09375"/>
<path d="M890.771 1084.3C897.541 1082.49 905.168 1087.17 904.997 1093.05C905.254 1098.65 898.141 1103.33 891.457 1101.93C884.858 1100.95 880.745 1094.52 883.573 1089.55C884.858 1087.03 887.6 1085 890.771 1084.3Z" fill="#010101" stroke="#010101" stroke-width="0.09375"/>
<path d="M1077.68 1089.27C1083.07 1088.22 1088.99 1091.93 1088.82 1096.55C1089.16 1101.3 1083.16 1105.29 1077.5 1104.1C1072.11 1103.26 1068.76 1098.16 1070.82 1094.03C1071.93 1091.65 1074.59 1089.76 1077.68 1089.27Z" fill="#010101" stroke="#010101" stroke-width="0.09375"/>
<path d="M976.553 1091.37C982.724 1089.34 990.179 1093.33 990.522 1098.72C991.208 1103.47 986.237 1108.02 980.41 1108.02C974.84 1108.3 969.612 1104.45 969.526 1099.9C969.184 1096.27 972.183 1092.56 976.553 1091.37Z" fill="black" stroke="black" stroke-width="0.09375"/>
<path d="M935.333 1096.76C940.304 1094.94 946.217 1099.21 944.674 1103.47C943.646 1107.67 936.362 1109.21 932.848 1106.06C929.335 1103.33 930.791 1098.02 935.333 1096.76V1096.76Z" fill="#010101" stroke="#010101" stroke-width="0.09375"/>
<path d="M785.364 1103.26C795.048 1101.44 804.989 1108.72 803.875 1116.76C803.446 1124.11 794.191 1129.92 785.364 1128.31C776.28 1127.12 770.11 1118.58 773.538 1111.52C775.252 1107.32 779.965 1104.03 785.364 1103.26Z" fill="black" stroke="black" stroke-width="0.09375"/>
<path d="M1058.74 1108.65C1063.88 1107.46 1069.19 1111.8 1067.65 1115.93C1066.62 1120.47 1058.74 1122.22 1055.05 1118.79C1051.02 1115.72 1053.25 1109.49 1058.74 1108.65Z" fill="#010101" stroke="#010101" stroke-width="0.09375"/>
<path d="M951.616 1110.82C963.013 1108.02 976.125 1114.11 978.953 1123.55C982.381 1132.79 975.011 1143.35 963.699 1145.8C952.387 1148.74 939.104 1142.79 936.105 1133.34C932.505 1124.04 939.961 1113.2 951.616 1110.82Z" fill="black" stroke="black" stroke-width="0.09375"/>
<path d="M1003.98 1121.45C1009.38 1120.19 1014.77 1124.95 1012.8 1129.29C1011.35 1133.62 1003.8 1134.95 1000.21 1131.53C996.264 1128.31 998.577 1122.22 1003.98 1121.45Z" fill="#020202" stroke="#020202" stroke-width="0.09375"/>
<path d="M859.92 1147.13C865.833 1145.31 872.86 1148.81 873.717 1153.91C874.746 1158.53 870.375 1163.29 864.719 1163.78C858.978 1164.55 853.065 1160.7 852.893 1155.94C852.293 1152.16 855.378 1148.32 859.92 1147.13V1147.13Z" fill="black" stroke="black" stroke-width="0.09375"/>
<path d="M746.715 1181.34C755.885 1179.59 765.568 1186.09 765.311 1193.79C765.654 1200.85 757.684 1207.15 749.029 1206.66C741.231 1206.52 734.289 1200.92 734.032 1194.49C733.518 1188.33 739.26 1182.39 746.715 1181.34Z" fill="black" stroke="black" stroke-width="0.09375"/>
<path d="M903.626 1205.4C914.166 1202.81 926.078 1208.9 928.049 1217.64C930.449 1225.69 923.764 1234.57 913.909 1236.53C906.796 1238.14 898.655 1236.18 893.856 1231.57C889.057 1227.23 887.6 1220.72 890.171 1215.27C892.399 1210.44 897.541 1206.66 903.626 1205.4V1205.4Z" fill="black" stroke="black" stroke-width="0.09375"/>
<path d="M790.506 1222.19C797.533 1220.58 805.417 1222.61 810.216 1227.09C814.844 1231.29 816.472 1237.51 814.244 1242.9C811.759 1249.13 804.218 1253.88 796.076 1253.88C788.535 1254.23 781.165 1250.6 777.823 1245.07C774.909 1240.45 774.995 1234.64 778.08 1230.1C780.651 1226.25 785.279 1223.24 790.506 1222.19Z" fill="black" stroke="black" stroke-width="0.09375"/>
<path d="M971.195 1528V1474.43H826.619V1447.94L968.315 1320.35H994.811V1450.82H1027.07V1474.43H994.811V1528H971.195ZM856.859 1450.82H971.195V1352.32L856.859 1450.82ZM1051.97 1528V1320.64H1241.19V1343.97H1075.3V1412.51H1208.64V1436.13H1075.3V1528H1051.97ZM1260.64 1528V1320.93H1433.44C1443.04 1320.93 1451.2 1324.38 1457.92 1331.3C1464.64 1338.02 1468 1346.08 1468 1355.49V1416.26C1468 1425.66 1464.64 1433.82 1457.92 1440.74C1451.2 1447.46 1443.04 1450.82 1433.44 1450.82H1401.76L1466.84 1527.71V1528H1436.03L1371.23 1450.82L1283.96 1450.53V1528H1260.64ZM1295.2 1427.2H1433.44C1436.51 1427.2 1439.1 1426.14 1441.21 1424.03C1443.32 1421.92 1444.38 1419.33 1444.38 1416.26V1355.49C1444.38 1352.42 1443.32 1349.82 1441.21 1347.71C1439.1 1345.41 1436.51 1344.26 1433.44 1344.26H1295.2C1292.12 1344.26 1289.44 1345.41 1287.13 1347.71C1285.02 1349.82 1283.96 1352.42 1283.96 1355.49V1416.26C1283.96 1419.33 1285.02 1421.92 1287.13 1424.03C1289.44 1426.14 1292.12 1427.2 1295.2 1427.2ZM1532.57 1528C1522.97 1528 1514.81 1524.64 1508.09 1517.92C1501.37 1511.2 1498.01 1503.04 1498.01 1493.44V1355.2C1498.01 1345.6 1501.37 1337.44 1508.09 1330.72C1514.81 1324 1522.97 1320.64 1532.57 1320.64H1670.81C1680.41 1320.64 1688.57 1324 1695.29 1330.72C1702.01 1337.44 1705.37 1345.6 1705.37 1355.2V1493.44C1705.37 1503.04 1702.01 1511.2 1695.29 1517.92C1688.57 1524.64 1680.41 1528 1670.81 1528H1532.57ZM1532.57 1504.67H1670.81C1673.88 1504.67 1676.47 1503.62 1678.58 1501.5C1680.89 1499.2 1682.04 1496.51 1682.04 1493.44V1355.2C1682.04 1352.13 1680.89 1349.54 1678.58 1347.42C1676.47 1345.12 1673.88 1343.97 1670.81 1343.97H1532.57C1529.49 1343.97 1526.81 1345.12 1524.5 1347.42C1522.39 1349.54 1521.33 1352.13 1521.33 1355.2V1493.44C1521.33 1496.51 1522.39 1499.2 1524.5 1501.5C1526.81 1503.62 1529.49 1504.67 1532.57 1504.67ZM1737.08 1528V1320.64H1769.05L1921.11 1501.5V1320.64H1944.44V1528H1912.47L1760.41 1347.14V1528H1737.08ZM2058.5 1528V1343.97H1966.34V1320.64H2173.7V1343.97H2081.83V1528H2058.5Z" fill="black"/>
<path d="M594.58 1721.16C588.82 1721.16 583.108 1720.63 577.444 1719.58C571.876 1718.62 567.316 1717.27 563.764 1715.54V1702.3C572.98 1706.62 582.916 1708.78 593.572 1708.78C608.548 1708.78 616.036 1703.74 616.036 1693.66C616.036 1690.2 615.22 1687.42 613.588 1685.3C611.956 1683.19 609.604 1681.37 606.532 1679.83C603.46 1678.2 598.468 1675.99 591.556 1673.21C582.052 1669.37 575.188 1665.14 570.964 1660.54C566.74 1655.93 564.628 1650.12 564.628 1643.11C564.628 1637.83 566.068 1633.18 568.948 1629.14C571.828 1625.02 575.86 1621.85 581.044 1619.64C586.228 1617.34 592.18 1616.18 598.9 1616.18C604.372 1616.18 609.316 1616.62 613.732 1617.48C618.148 1618.34 622.468 1619.74 626.692 1621.66V1634.33C618.34 1630.58 609.892 1628.71 601.348 1628.71C594.436 1628.71 589.156 1629.96 585.508 1632.46C581.86 1634.95 580.036 1638.5 580.036 1643.11C580.036 1646.28 580.804 1648.97 582.34 1651.18C583.972 1653.29 586.324 1655.21 589.396 1656.94C592.564 1658.57 597.22 1660.63 603.364 1663.13C610.18 1665.91 615.556 1668.55 619.492 1671.05C623.428 1673.54 626.404 1676.62 628.42 1680.26C630.532 1683.82 631.588 1688.28 631.588 1693.66C631.588 1702.39 628.468 1709.16 622.228 1713.96C615.988 1718.76 606.772 1721.16 594.58 1721.16ZM681.686 1721.16C673.91 1721.16 667.046 1719.72 661.094 1716.84C655.238 1713.86 650.63 1709.64 647.27 1704.17C644.006 1698.6 642.374 1692.07 642.374 1684.58C642.374 1677.19 644.006 1670.71 647.27 1665.14C650.534 1659.58 655.142 1655.3 661.094 1652.33C667.046 1649.26 673.91 1647.72 681.686 1647.72C689.462 1647.72 696.326 1649.26 702.278 1652.33C708.23 1655.3 712.838 1659.58 716.102 1665.14C719.462 1670.71 721.142 1677.19 721.142 1684.58C721.142 1692.07 719.462 1698.6 716.102 1704.17C712.838 1709.64 708.23 1713.86 702.278 1716.84C696.326 1719.72 689.462 1721.16 681.686 1721.16ZM681.686 1709.64C689.174 1709.64 695.126 1707.34 699.542 1702.73C703.958 1698.12 706.166 1692.07 706.166 1684.58C706.166 1676.81 703.958 1670.66 699.542 1666.15C695.126 1661.64 689.174 1659.38 681.686 1659.38C674.198 1659.38 668.246 1661.64 663.83 1666.15C659.414 1670.66 657.206 1676.81 657.206 1684.58C657.206 1692.07 659.414 1698.12 663.83 1702.73C668.246 1707.34 674.198 1709.64 681.686 1709.64ZM736.631 1661.11H726.119V1649.88H736.631V1636.34C736.631 1628.38 738.887 1622.33 743.399 1618.2C747.911 1613.98 753.959 1611.86 761.543 1611.86C765.479 1611.86 769.175 1612.44 772.631 1613.59V1625.69C769.943 1624.44 767.159 1623.82 764.279 1623.82C759.767 1623.82 756.455 1624.92 754.343 1627.13C752.231 1629.24 751.175 1632.6 751.175 1637.21V1649.88H768.455V1661.11H751.175V1719H736.631V1661.11ZM804.222 1721.16C797.214 1721.16 791.79 1719.14 787.95 1715.11C784.206 1711.08 782.334 1705.37 782.334 1697.98V1661.11H771.822V1649.88H782.334V1629.14H797.022V1649.88H814.014V1661.11H797.022V1696.97C797.022 1701.58 797.886 1704.84 799.614 1706.76C801.438 1708.68 804.702 1709.64 809.406 1709.64C812.19 1709.64 814.974 1709.02 817.758 1707.77V1719.29C814.11 1720.54 809.598 1721.16 804.222 1721.16ZM824.905 1649.88H839.737L855.289 1701.14L870.697 1649.88H883.801L899.209 1701.14L914.761 1649.88H929.737L907.273 1719H893.305L877.321 1667.45L861.337 1719H847.225L824.905 1649.88ZM962.522 1721.16C954.17 1721.16 947.45 1719.05 942.362 1714.82C937.37 1710.5 934.874 1704.7 934.874 1697.4C934.874 1689.72 937.274 1683.82 942.074 1679.69C946.97 1675.46 953.882 1673.35 962.81 1673.35C972.314 1673.35 980.378 1675.27 987.002 1679.11V1675.51C987.002 1670.04 985.322 1666.01 981.962 1663.42C978.698 1660.73 973.514 1659.38 966.41 1659.38C962.186 1659.38 958.058 1659.82 954.026 1660.68C950.09 1661.45 946.538 1662.55 943.37 1663.99V1652.18C946.25 1650.84 949.994 1649.78 954.602 1649.02C959.21 1648.15 963.674 1647.72 967.994 1647.72C979.418 1647.72 987.866 1650.26 993.338 1655.35C998.906 1660.34 1001.69 1667.3 1001.69 1676.23V1719H988.01V1711.22C985.034 1714.49 981.482 1716.98 977.354 1718.71C973.322 1720.34 968.378 1721.16 962.522 1721.16ZM966.122 1710.07C970.73 1710.07 974.906 1709.16 978.65 1707.34C982.394 1705.51 985.178 1702.97 987.002 1699.7V1690.34C980.762 1686.31 973.802 1684.3 966.122 1684.3C960.554 1684.3 956.378 1685.4 953.594 1687.61C950.906 1689.72 949.562 1692.98 949.562 1697.4C949.562 1705.85 955.082 1710.07 966.122 1710.07ZM1019.74 1649.88H1033.85V1662.26C1036.73 1658.04 1040.76 1654.92 1045.95 1652.9C1051.23 1650.89 1057.32 1649.88 1064.23 1649.88V1661.26C1056.84 1661.26 1050.51 1662.46 1045.23 1664.86C1039.95 1667.26 1036.3 1671.05 1034.28 1676.23V1719H1019.74V1649.88ZM1110.91 1721.16C1098.14 1721.16 1088.11 1717.99 1080.81 1711.66C1073.61 1705.22 1070.01 1696.2 1070.01 1684.58C1070.01 1673.26 1073.23 1664.28 1079.66 1657.66C1086.19 1651.03 1095.45 1647.72 1107.45 1647.72C1115.42 1647.72 1122.19 1649.26 1127.76 1652.33C1133.33 1655.3 1137.5 1659.48 1140.29 1664.86C1143.17 1670.14 1144.61 1676.18 1144.61 1683V1690.2H1083.84C1084.32 1696.73 1087.05 1701.62 1092.05 1704.89C1097.13 1708.06 1104 1709.64 1112.64 1709.64C1117.05 1709.64 1121.52 1709.26 1126.03 1708.49C1130.54 1707.62 1134.53 1706.52 1137.98 1705.18V1716.84C1134.91 1718.09 1130.83 1719.1 1125.74 1719.86C1120.75 1720.73 1115.81 1721.16 1110.91 1721.16ZM1130.93 1679.98C1130.73 1673.45 1128.57 1668.41 1124.45 1664.86C1120.41 1661.21 1114.65 1659.38 1107.17 1659.38C1099.87 1659.38 1094.21 1661.26 1090.17 1665C1086.14 1668.74 1084.03 1673.74 1083.84 1679.98H1130.93ZM1213.8 1618.34H1246.2C1257.05 1618.34 1266.46 1620.36 1274.42 1624.39C1282.39 1628.42 1288.49 1634.18 1292.71 1641.67C1297.03 1649.16 1299.19 1657.99 1299.19 1668.17C1299.19 1684.87 1294.34 1697.54 1284.65 1706.18C1275.05 1714.73 1261.56 1719 1244.18 1719H1213.8V1618.34ZM1244.04 1706.76C1257.48 1706.76 1267.56 1703.45 1274.28 1696.82C1281 1690.2 1284.36 1680.65 1284.36 1668.17C1284.36 1656.65 1281.05 1647.53 1274.42 1640.81C1267.9 1634.09 1258.54 1630.73 1246.34 1630.73H1228.49V1706.76H1244.04ZM1353.07 1721.16C1340.3 1721.16 1330.27 1717.99 1322.97 1711.66C1315.77 1705.22 1312.17 1696.2 1312.17 1684.58C1312.17 1673.26 1315.39 1664.28 1321.82 1657.66C1328.35 1651.03 1337.61 1647.72 1349.61 1647.72C1357.58 1647.72 1364.35 1649.26 1369.91 1652.33C1375.48 1655.3 1379.66 1659.48 1382.44 1664.86C1385.32 1670.14 1386.76 1676.18 1386.76 1683V1690.2H1325.99C1326.47 1696.73 1329.21 1701.62 1334.2 1704.89C1339.29 1708.06 1346.15 1709.64 1354.79 1709.64C1359.21 1709.64 1363.67 1709.26 1368.19 1708.49C1372.7 1707.62 1376.68 1706.52 1380.14 1705.18V1716.84C1377.07 1718.09 1372.99 1719.1 1367.9 1719.86C1362.91 1720.73 1357.96 1721.16 1353.07 1721.16ZM1373.08 1679.98C1372.89 1673.45 1370.73 1668.41 1366.6 1664.86C1362.57 1661.21 1356.81 1659.38 1349.32 1659.38C1342.03 1659.38 1336.36 1661.26 1332.33 1665C1328.3 1668.74 1326.19 1673.74 1325.99 1679.98H1373.08ZM1394.01 1649.88H1409.42L1429.73 1699.56L1450.03 1649.88H1465.44L1436.06 1719H1423.39L1394.01 1649.88ZM1513.52 1721.16C1500.75 1721.16 1490.72 1717.99 1483.42 1711.66C1476.22 1705.22 1472.62 1696.2 1472.62 1684.58C1472.62 1673.26 1475.84 1664.28 1482.27 1657.66C1488.8 1651.03 1498.06 1647.72 1510.06 1647.72C1518.03 1647.72 1524.8 1649.26 1530.37 1652.33C1535.94 1655.3 1540.11 1659.48 1542.9 1664.86C1545.78 1670.14 1547.22 1676.18 1547.22 1683V1690.2H1486.45C1486.93 1696.73 1489.66 1701.62 1494.66 1704.89C1499.74 1708.06 1506.61 1709.64 1515.25 1709.64C1519.66 1709.64 1524.13 1709.26 1528.64 1708.49C1533.15 1707.62 1537.14 1706.52 1540.59 1705.18V1716.84C1537.52 1718.09 1533.44 1719.1 1528.35 1719.86C1523.36 1720.73 1518.42 1721.16 1513.52 1721.16ZM1533.54 1679.98C1533.34 1673.45 1531.18 1668.41 1527.06 1664.86C1523.02 1661.21 1517.26 1659.38 1509.78 1659.38C1502.48 1659.38 1496.82 1661.26 1492.78 1665C1488.75 1668.74 1486.64 1673.74 1486.45 1679.98H1533.54ZM1563.11 1612.58H1577.66V1719H1563.11V1612.58ZM1632.87 1721.16C1625.1 1721.16 1618.23 1719.72 1612.28 1716.84C1606.43 1713.86 1601.82 1709.64 1598.46 1704.17C1595.19 1698.6 1593.56 1692.07 1593.56 1684.58C1593.56 1677.19 1595.19 1670.71 1598.46 1665.14C1601.72 1659.58 1606.33 1655.3 1612.28 1652.33C1618.23 1649.26 1625.1 1647.72 1632.87 1647.72C1640.65 1647.72 1647.51 1649.26 1653.47 1652.33C1659.42 1655.3 1664.03 1659.58 1667.29 1665.14C1670.65 1670.71 1672.33 1677.19 1672.33 1684.58C1672.33 1692.07 1670.65 1698.6 1667.29 1704.17C1664.03 1709.64 1659.42 1713.86 1653.47 1716.84C1647.51 1719.72 1640.65 1721.16 1632.87 1721.16ZM1632.87 1709.64C1640.36 1709.64 1646.31 1707.34 1650.73 1702.73C1655.15 1698.12 1657.35 1692.07 1657.35 1684.58C1657.35 1676.81 1655.15 1670.66 1650.73 1666.15C1646.31 1661.64 1640.36 1659.38 1632.87 1659.38C1625.39 1659.38 1619.43 1661.64 1615.02 1666.15C1610.6 1670.66 1608.39 1676.81 1608.39 1684.58C1608.39 1692.07 1610.6 1698.12 1615.02 1702.73C1619.43 1707.34 1625.39 1709.64 1632.87 1709.64ZM1688.13 1649.88H1702.24V1660.1C1709.34 1651.85 1718.94 1647.72 1731.04 1647.72C1737.95 1647.72 1744.14 1649.26 1749.62 1652.33C1755.18 1655.4 1759.5 1659.72 1762.58 1665.29C1765.74 1670.76 1767.33 1677.14 1767.33 1684.44C1767.33 1691.64 1765.74 1698.02 1762.58 1703.59C1759.5 1709.16 1755.23 1713.48 1749.76 1716.55C1744.29 1719.62 1738.05 1721.16 1731.04 1721.16C1725.28 1721.16 1719.9 1720.2 1714.91 1718.28C1709.92 1716.36 1705.84 1713.53 1702.67 1709.78V1750.54H1688.13V1649.88ZM1727.73 1709.64C1732.43 1709.64 1736.66 1708.63 1740.4 1706.62C1744.24 1704.5 1747.22 1701.53 1749.33 1697.69C1751.54 1693.85 1752.64 1689.43 1752.64 1684.44C1752.64 1679.45 1751.54 1675.08 1749.33 1671.34C1747.22 1667.5 1744.24 1664.57 1740.4 1662.55C1736.66 1660.44 1732.43 1659.38 1727.73 1659.38C1721.87 1659.38 1716.69 1660.92 1712.18 1663.99C1707.76 1667.06 1704.59 1671.29 1702.67 1676.66V1692.22C1704.3 1697.5 1707.42 1701.72 1712.03 1704.89C1716.64 1708.06 1721.87 1709.64 1727.73 1709.64ZM1783.19 1649.88H1797.02V1659.82C1800.28 1655.78 1803.98 1652.76 1808.1 1650.74C1812.23 1648.73 1816.5 1647.72 1820.92 1647.72C1826.49 1647.72 1830.9 1648.68 1834.17 1650.6C1837.43 1652.42 1839.83 1655.26 1841.37 1659.1C1844.44 1655.35 1848.18 1652.52 1852.6 1650.6C1857.11 1648.68 1861.62 1647.72 1866.14 1647.72C1874.58 1647.72 1880.68 1649.88 1884.42 1654.2C1888.17 1658.42 1890.04 1664.71 1890.04 1673.06V1719H1875.93V1674.94C1875.93 1669.27 1874.87 1665.29 1872.76 1662.98C1870.65 1660.58 1867.05 1659.38 1861.96 1659.38C1854.66 1659.38 1848.71 1662.55 1844.1 1668.89C1844.3 1670.33 1844.39 1672.68 1844.39 1675.94V1719H1830.28V1674.94C1830.28 1669.27 1829.32 1665.29 1827.4 1662.98C1825.48 1660.58 1822.02 1659.38 1817.03 1659.38C1809.74 1659.38 1803.21 1663.51 1797.45 1671.77V1719H1783.19V1649.88ZM1946.08 1721.16C1933.31 1721.16 1923.28 1717.99 1915.99 1711.66C1908.79 1705.22 1905.19 1696.2 1905.19 1684.58C1905.19 1673.26 1908.4 1664.28 1914.83 1657.66C1921.36 1651.03 1930.63 1647.72 1942.63 1647.72C1950.59 1647.72 1957.36 1649.26 1962.93 1652.33C1968.5 1655.3 1972.67 1659.48 1975.46 1664.86C1978.34 1670.14 1979.78 1676.18 1979.78 1683V1690.2H1919.01C1919.49 1696.73 1922.23 1701.62 1927.22 1704.89C1932.31 1708.06 1939.17 1709.64 1947.81 1709.64C1952.23 1709.64 1956.69 1709.26 1961.2 1708.49C1965.71 1707.62 1969.7 1706.52 1973.15 1705.18V1716.84C1970.08 1718.09 1966 1719.1 1960.91 1719.86C1955.92 1720.73 1950.98 1721.16 1946.08 1721.16ZM1966.1 1679.98C1965.91 1673.45 1963.75 1668.41 1959.62 1664.86C1955.59 1661.21 1949.83 1659.38 1942.34 1659.38C1935.04 1659.38 1929.38 1661.26 1925.35 1665C1921.31 1668.74 1919.2 1673.74 1919.01 1679.98H1966.1ZM1995.68 1649.88H2009.79V1659.82C2013.05 1655.69 2017.04 1652.66 2021.74 1650.74C2026.54 1648.73 2031.53 1647.72 2036.72 1647.72C2045.93 1647.72 2052.8 1650.17 2057.31 1655.06C2061.82 1659.96 2064.08 1666.54 2064.08 1674.79V1719H2049.53V1676.23C2049.53 1665 2044.16 1659.38 2033.4 1659.38C2028.8 1659.38 2024.48 1660.49 2020.44 1662.7C2016.51 1664.81 2013.1 1668.07 2010.22 1672.49V1719H1995.68V1649.88ZM2108.66 1721.16C2101.65 1721.16 2096.23 1719.14 2092.39 1715.11C2088.64 1711.08 2086.77 1705.37 2086.77 1697.98V1661.11H2076.26V1649.88H2086.77V1629.14H2101.46V1649.88H2118.45V1661.11H2101.46V1696.97C2101.46 1701.58 2102.32 1704.84 2104.05 1706.76C2105.88 1708.68 2109.14 1709.64 2113.84 1709.64C2116.63 1709.64 2119.41 1709.02 2122.2 1707.77V1719.29C2118.55 1720.54 2114.04 1721.16 2108.66 1721.16ZM2189.18 1618.34H2203.86V1706.76H2254.84V1719H2189.18V1618.34ZM2267.78 1618.34H2282.47V1706.76H2333.45V1719H2267.78V1618.34ZM2388.92 1721.16C2378.55 1721.16 2369.34 1719 2361.27 1714.68C2353.21 1710.36 2346.92 1704.26 2342.41 1696.39C2337.9 1688.42 2335.64 1679.21 2335.64 1668.74C2335.64 1658.28 2337.9 1649.06 2342.41 1641.1C2346.92 1633.13 2353.21 1626.98 2361.27 1622.66C2369.34 1618.34 2378.55 1616.18 2388.92 1616.18C2402.74 1616.18 2414.31 1619.69 2423.62 1626.7V1640.81C2415.27 1633.42 2404.14 1629.72 2390.22 1629.72C2382.44 1629.72 2375.53 1631.3 2369.48 1634.47C2363.53 1637.64 2358.87 1642.2 2355.51 1648.15C2352.15 1654.01 2350.47 1660.87 2350.47 1668.74C2350.47 1676.62 2352.15 1683.53 2355.51 1689.48C2358.97 1695.43 2363.67 1699.99 2369.62 1703.16C2375.67 1706.33 2382.54 1707.91 2390.22 1707.91C2397.32 1707.91 2403.66 1707 2409.22 1705.18C2414.89 1703.26 2420.12 1700.23 2424.92 1696.1V1710.36C2416.28 1717.56 2404.28 1721.16 2388.92 1721.16Z" fill="black"/>
</svg>
